<?xml version="1.0" standalone="no"?>
<!DOCTYPE svg PUBLIC "-//W3C//DTD SVG 1.1//EN" "http://www.w3.org/Graphics/SVG/1.1/DTD/svg11.dtd" >
<svg xmlns="http://www.w3.org/2000/svg">
<metadata></metadata>
<defs>
<font id="misoregular" horiz-adv-x="416" >
<font-face units-per-em="1000" ascent="800" descent="-200" />
<missing-glyph horiz-adv-x="192" />
<glyph horiz-adv-x="0" />
<glyph horiz-adv-x="333" />
<glyph unicode=" "  horiz-adv-x="192" />
<glyph unicode="&#x09;" horiz-adv-x="192" />
<glyph unicode="&#xa0;" horiz-adv-x="192" />
<glyph unicode="!" horiz-adv-x="200" d="M100 -4q-17 0 -29.5 12.5t-12.5 29.5t12.5 29.5t29.5 12.5t29.5 -12.5t12.5 -29.5t-12.5 -29.5t-29.5 -12.5zM68 188v400q0 13 9.5 22.5t22.5 9.5q14 0 23 -9t9 -23v-400q0 -14 -9 -23t-23 -9q-13 0 -22.5 9.5t-9.5 22.5z" />
<glyph unicode="&#x22;" horiz-adv-x="352" d="M256 640q14 0 23 -9t9 -23v-100q0 -14 -9 -23t-23 -9t-23 9t-9 23v100q0 14 9 23t23 9zM64 608q0 14 9 23t23 9t23 -9t9 -23v-100q0 -14 -9 -23t-23 -9t-23 9t-9 23v100z" />
<glyph unicode="#" horiz-adv-x="458" d="M409 377h-69v-99h69q13 0 22 -8.5t9 -21.5t-9 -22t-22 -9h-69v-189q0 -13 -9 -22t-22 -9t-21.5 9t-8.5 22v189h-99v-189q0 -13 -9 -22t-22 -9t-21.5 9t-8.5 22v189h-70q-13 0 -21.5 9t-8.5 22t8.5 21.5t21.5 8.5h70v99h-70q-13 0 -21.5 9t-8.5 22t8.5 21.5t21.5 8.5h70 v170q0 13 8.5 21.5t21.5 8.5t22 -8.5t9 -21.5v-170h99v170q0 13 8.5 21.5t21.5 8.5t22 -8.5t9 -21.5v-170h69q13 0 22 -8.5t9 -21.5t-9 -22t-22 -9zM279 278v99h-99v-99h99z" />
<glyph unicode="$" d="M293 295q52 -42 54 -112q0 -68 -52 -112q-24 -22 -62 -32v-51q0 -13 -9.5 -22.5t-22.5 -9.5t-22.5 9t-9.5 23v52q-62 12 -95 69q-7 11 -3 24t15 20q11 6 24 2.5t20 -14.5q19 -34 57 -40q4 -1 13 -1h1q30 0 53 20q29 24 29 63q-2 39 -31 62l-125 103q-52 43 -52 108 q-2 68 50 110q25 22 60 30v52q0 14 9.5 23t22.5 9t22.5 -9.5t9.5 -22.5v-52q60 -14 91 -67q6 -11 2.5 -24t-14.5 -20t-24 -3t-20 15q-17 32 -54 38q-4 1 -13 1h-1q-28 0 -50 -19q-29 -24 -27 -60q0 -37 28 -59z" />
<glyph unicode="%" horiz-adv-x="593" d="M437 237q49 0 84 -35t35 -84t-35 -84t-84 -35t-84 34.5t-35 84.5q0 49 35 84t84 35zM437 57q25 0 43 17.5t18 43.5t-18 43.5t-43 17.5t-43 -17.5t-18 -43.5t18 -43.5t43 -17.5zM276 518q0 -49 -35 -84t-84 -35t-84 34.5t-35 84.5q0 49 35 84t84 35t84 -35t35 -84zM96 518 q0 -26 18 -43.5t43 -17.5t43 17.5t18 43.5t-18 43.5t-43 17.5t-43 -17.5t-18 -43.5zM451 637q12 -6 16 -18.5t-1 -24.5l-280 -580q-6 -12 -18.5 -16.5t-24.5 1.5t-16.5 18.5t1.5 24.5l280 580q6 12 18.5 16t24.5 -1z" />
<glyph unicode="&#x26;" horiz-adv-x="493" d="M412 18l-63 82l-18 -30q-33 -55 -98 -71q-62 -14 -118 23q-54 37 -65 102q-9 66 30 117l80 104l-68 88l-1 1v1h-1v1q-20 31 -21.5 67.5t16.5 68.5q18 33 50 51.5t70 16.5t68.5 -22t46.5 -54t12 -70.5t-27 -66.5l-64 -82l76 -99l25 -33l31 51q7 12 20 15t24 -4t14.5 -19.5 t-3.5 -24.5l-44 -72l79 -101q8 -10 6 -24t-12 -21q-10 -8 -23.5 -6.5t-21.5 11.5zM143 471l58 -74l53 69q26 34 8 71t-59 39q-40 2 -62 -35q-19 -35 2 -70zM276 103l31 51l-41 53l-65 85l-70 -90q-23 -31 -17 -68q5 -36 37 -59q30 -21 68 -13q36 8 57 41z" />
<glyph unicode="'" horiz-adv-x="192" d="M128 508q0 -13 -9.5 -22.5t-22.5 -9.5q-14 0 -23 9t-9 23v100q0 14 9 23t23 9q13 0 22.5 -9.5t9.5 -22.5v-100z" />
<glyph unicode="(" horiz-adv-x="268" d="M241 668q-58 -72 -91 -167q-30 -89 -30 -183q0 -95 30 -183q33 -95 91 -167q8 -11 6.5 -24t-12.5 -21q-10 -8 -23.5 -6.5t-21.5 11.5q-67 85 -100 186q-34 98 -34 204t34 204q32 98 100 186q8 10 21.5 11.5t23.5 -6.5q11 -8 12.5 -21t-6.5 -24z" />
<glyph unicode=")" horiz-adv-x="269" d="M212 328q0 -106 -34 -204q-35 -102 -101 -186q-7 -10 -21 -11.5t-24 6.5t-11.5 21t6.5 24q58 72 91 167q30 89 30 183t-30 183q-33 95 -91 167q-8 11 -6.5 24t11.5 21t24 6.5t21 -11.5q67 -87 101 -186q34 -98 34 -204z" />
<glyph unicode="*" d="M323 357l-84 48v-97q0 -13 -9 -22t-22 -9t-21.5 9t-8.5 22v97l-85 -48q-10 -7 -22.5 -3.5t-18.5 14.5q-7 10 -3.5 22.5t14.5 18.5l84 49l-84 49q-11 6 -14.5 18.5t3.5 22.5q6 11 18.5 14.5t22.5 -3.5l85 -48v97q0 13 8.5 21.5t21.5 8.5t22 -8.5t9 -21.5v-97l84 48 q10 7 22.5 3.5t18.5 -14.5q7 -10 3.5 -22.5t-14.5 -18.5l-84 -49l84 -49q11 -6 14.5 -18.5t-3.5 -22.5q-6 -11 -18.5 -14.5t-22.5 3.5z" />
<glyph unicode="+" d="M328 320q13 0 22.5 -9.5t9.5 -22.5t-9.5 -22.5t-22.5 -9.5h-88v-88q0 -13 -9.5 -22.5t-22.5 -9.5q-14 0 -23 9t-9 23v88h-88q-14 0 -23 9t-9 23t9 23t23 9h88v88q0 14 9 23t23 9q13 0 22.5 -9.5t9.5 -22.5v-88h88z" />
<glyph unicode="," horiz-adv-x="192" d="M68 -20q14 5 14 20v17h-2q-13 0 -21.5 9t-8.5 22t8.5 21.5t21.5 8.5h32q13 0 22 -8.5t9 -21.5v-48q0 -25 -14 -45.5t-37 -30.5q-12 -5 -23.5 0t-16.5 16q-5 12 0 23.5t16 16.5z" />
<glyph unicode="-" d="M360 288q0 -13 -9.5 -22.5t-22.5 -9.5h-240q-14 0 -23 9t-9 23t9 23t23 9h240q13 0 22.5 -9.5t9.5 -22.5z" />
<glyph unicode="." horiz-adv-x="192" d="M54 38q0 17 12.5 29.5t29.5 12.5t29.5 -12.5t12.5 -29.5t-12.5 -29.5t-29.5 -12.5t-29.5 12.5t-12.5 29.5z" />
<glyph unicode="/" d="M339 678q13 -4 18.5 -16t0.5 -25l-240 -660q-4 -13 -16 -18.5t-25 -0.5q-12 5 -17.5 16.5t-1.5 24.5l240 660q5 12 17 17.5t24 1.5z" />
<glyph unicode="0" d="M208 -4q-63 0 -107.5 44.5t-44.5 107.5v340q0 63 44.5 107.5t107.5 44.5q62 0 107 -44.5t45 -107.5v-340q0 -63 -45 -107.5t-107 -44.5zM208 576q-37 0 -62.5 -26t-25.5 -62v-340q0 -37 25.5 -62.5t62.5 -25.5q36 0 62 25.5t26 62.5v340q0 36 -26 62t-62 26z" />
<glyph unicode="1" d="M134 465q-9 -9 -22 -9t-23 9q-9 10 -9 23t9 23l120 120q14 14 35 7q20 -8 20 -30v-580q0 -13 -9.5 -22.5t-22.5 -9.5q-14 0 -23 9t-9 23v503z" />
<glyph unicode="2" d="M76 520q-11 7 -15 20t3 24q31 55 91 70q59 17 114 -13t72 -89q18 -59 -11 -115q-147 -280 -185 -353h171q13 0 22.5 -9.5t9.5 -22.5t-9.5 -22.5t-22.5 -9.5h-224q-19 0 -27 15q-10 17 -1 32l210 400q17 32 6 66q-11 36 -42 52q-31 17 -66 8q-36 -11 -52 -41 q-7 -11 -20 -15t-24 3z" />
<glyph unicode="3" d="M205 63q29 8 47 31.5t18 53.5v60q0 36 -26 62t-62 26q-14 0 -23 9t-9 23t9 23t23 9q36 0 62 25.5t26 62.5v40q0 30 -18 53.5t-47 31.5q-29 7 -56.5 -4t-42.5 -37q-7 -11 -20 -15t-24 3t-15 20t3 24q26 44 74 64t97 7q50 -13 81.5 -54t31.5 -93v-40q0 -74 -59 -120 q59 -46 59 -120v-60q0 -52 -31.5 -93t-81.5 -54q-50 -14 -97.5 6t-73.5 65q-7 11 -3 24t15 20q11 6 24 2.5t20 -14.5q15 -26 42.5 -37t56.5 -4z" />
<glyph unicode="4" d="M74 136q-16 0 -26 13t-5 29l140 440q5 12 16.5 18t24.5 2q22 -7 22 -30q0 -7 -2 -10q-105 -330 -126 -398h124v108q0 14 9 23t23 9t23 -9t9 -23v-108h48q14 0 23 -9t9 -23t-9 -23t-23 -9h-48v-108q0 -14 -9 -23t-23 -9t-23 9t-9 23v108h-168z" />
<glyph unicode="5" d="M95 287q-24 7 -24 31v286q0 14 9.5 23t22.5 9h208q13 0 22.5 -9t9.5 -23t-9.5 -23t-22.5 -9h-176v-180q52 28 111 13q50 -13 81.5 -54t31.5 -93v-110q0 -52 -31.5 -93t-81.5 -54q-50 -14 -97.5 6t-73.5 65q-6 11 -2.5 24t14.5 20q11 6 24 2.5t20 -14.5q15 -26 42.5 -37 t56.5 -4q29 8 47 31.5t18 53.5v110q0 30 -18 53.5t-47 31.5q-29 7 -56.5 -4t-42.5 -37q-12 -22 -36 -15z" />
<glyph unicode="6" d="M217 -4q-63 0 -107.5 44.5t-44.5 107.5v340q0 52 31.5 92.5t81.5 54.5q49 13 97 -7t74 -64q7 -11 3 -24t-15 -20t-24 -3t-20 15q-14 26 -42 37t-57 4q-29 -8 -47 -31.5t-18 -53.5v-116q39 28 88 28q63 0 107.5 -44.5t44.5 -107.5v-100q0 -63 -44.5 -107.5t-107.5 -44.5z M217 336q-36 0 -62 -26t-26 -62v-100q0 -37 26 -62.5t62 -25.5q37 0 62.5 25.5t25.5 62.5v100q0 36 -25.5 62t-62.5 26z" />
<glyph unicode="7" d="M85 492q-13 0 -22.5 9.5t-9.5 22.5v80q0 13 9.5 22.5t22.5 9.5h240q15 0 25 -12q10 -14 6 -28l-140 -576q-3 -13 -14 -19.5t-24 -3.5q-11 2 -18 11t-7 20q0 1 0.5 3.5t0.5 4.5q114 467 131 536h-168v-48q0 -14 -9.5 -23t-22.5 -9z" />
<glyph unicode="8" d="M208 -4q-62 0 -107 44.5t-45 107.5v60q0 74 59 120q-59 46 -59 120v40q0 63 45 107.5t107 44.5q63 0 107.5 -44.5t44.5 -107.5v-40q0 -74 -58 -120q58 -46 58 -120v-60q0 -63 -44.5 -107.5t-107.5 -44.5zM120 448q0 -37 26 -62.5t62 -25.5q37 0 62.5 25.5t25.5 62.5v40 q0 36 -25.5 62t-62.5 26q-36 0 -62 -26t-26 -62v-40zM296 208q0 36 -25.5 62t-62.5 26q-36 0 -62 -26t-26 -62v-60q0 -37 26 -62.5t62 -25.5q37 0 62.5 25.5t25.5 62.5v60z" />
<glyph unicode="9" d="M199 236q-62 0 -107 44.5t-45 107.5v100q0 63 45 107.5t107 44.5q63 0 107.5 -44.5t44.5 -107.5v-340q0 -52 -31 -92.5t-81 -54.5t-98 6t-73 65q-7 11 -3.5 24t14.5 20q28 14 44 -12q15 -26 43 -37t56 -4q29 7 47 31t18 54v116q-37 -28 -88 -28zM199 576q-36 0 -62 -26 t-26 -62v-100q0 -37 26 -62.5t62 -25.5q37 0 62.5 25.5t25.5 62.5v100q0 36 -25.5 62t-62.5 26z" />
<glyph unicode=":" horiz-adv-x="192" d="M138 38q0 -17 -12 -29.5t-30 -12.5q-17 0 -29.5 12.5t-12.5 29.5t12.5 29.5t29.5 12.5q18 0 30 -12.5t12 -29.5zM96 460q18 0 30 -12.5t12 -29.5t-12 -29.5t-30 -12.5q-17 0 -29.5 12.5t-12.5 29.5t12.5 29.5t29.5 12.5z" />
<glyph unicode=";" horiz-adv-x="192" d="M112 78q13 0 22 -8.5t9 -21.5v-48q0 -25 -14 -45.5t-37 -30.5q-12 -5 -23.5 0t-16.5 16q-5 12 0 23.5t16 16.5q14 5 14 20v17h-2q-13 0 -21.5 9t-8.5 22t8.5 21.5t21.5 8.5h32zM96 376q-17 0 -29.5 12.5t-12.5 29.5t12.5 29.5t29.5 12.5t29.5 -12.5t12.5 -29.5 t-12.5 -29.5t-29.5 -12.5z" />
<glyph unicode="&#x3c;" d="M344 67q-8 -10 -21 -11t-24 7l-240 200q-11 9 -11 25q0 14 11 25l240 200q10 8 23.5 6.5t21.5 -11.5t8 -20q0 -14 -12 -25q-165 -137 -210 -175l210 -175q12 -10 12 -25q0 -11 -8 -21z" />
<glyph unicode="=" d="M328 240q14 0 23 -9t9 -23t-9 -23t-23 -9h-240q-13 0 -22.5 9.5t-9.5 22.5t9.5 22.5t22.5 9.5h240zM328 400q14 0 23 -9t9 -23t-9 -23t-23 -9h-240q-13 0 -22.5 9.5t-9.5 22.5t9.5 22.5t22.5 9.5h240z" />
<glyph unicode="&#x3e;" d="M64 88q0 14 11 25q166 137 211 175l-211 175q-11 11 -11 25q0 12 7 20q9 10 22 11.5t23 -6.5l240 -200q12 -11 12 -25q0 -16 -12 -25l-240 -200q-10 -8 -23 -7t-22 11q-7 8 -7 21z" />
<glyph unicode="?" horiz-adv-x="357" d="M218 558q-32 24 -71 16t-59 -42q-7 -11 -19.5 -15t-24.5 3q-11 7 -14.5 20t3.5 24q34 59 101 73t122 -28q55 -43 60 -110q5 -69 -44 -118l-50 -51q-26 -26 -26 -62v-80q0 -14 -9 -23t-23 -9q-13 0 -22.5 9.5t-9.5 22.5v80q0 61 44 107l51 51q28 28 25 68q-3 41 -34 64z M206 38q0 -17 -12.5 -29.5t-29.5 -12.5t-29.5 12.5t-12.5 29.5t12.5 29.5t29.5 12.5t29.5 -12.5t12.5 -29.5z" />
<glyph unicode="@" horiz-adv-x="764" d="M609 544q93 -95 93 -226v-186q0 -54 -38 -92t-92 -38h-200q-53 0 -91.5 38t-38.5 92q0 53 38.5 91.5t91.5 38.5h70v68q0 45 -43 62q-43 18 -76 -15q-9 -8 -21.5 -8t-21.5 9q-8 9 -8 21.5t9 20.5q28 28 66 35t74 -7q37 -14 59 -46.5t22 -71.5v-268h70q29 0 49.5 20.5 t20.5 49.5v186q0 107 -76 183q-75 77 -184 77q-108 0 -183 -77q-77 -75 -77 -183v-180q0 -109 77 -184q76 -76 183 -76h110q13 0 21.5 -9t8.5 -21q0 -13 -8.5 -21.5t-21.5 -8.5h-110q-131 0 -226 93q-94 96 -94 227v180q0 130 94 226q96 94 226 94q131 0 227 -94zM302 132 q0 -29 20.5 -49.5t49.5 -20.5h70v140h-70q-28 0 -49 -21t-21 -49z" />
<glyph unicode="A" horiz-adv-x="432" d="M247 616l160 -580q4 -13 -3 -24t-20 -15t-24 2.5t-15 19.5q-13 49 -32 117h-194l-32 -117q-4 -13 -15.5 -19.5t-24.5 -2.5t-19.5 15t-2.5 24l160 580q7 24 31 24t31 -24zM137 200h158q-16 58 -45.5 166.5t-33.5 121.5q-4 -13 -33.5 -121.5t-45.5 -166.5z" />
<glyph unicode="B" horiz-adv-x="428" d="M68 604q0 14 9 23t23 9h120q63 0 107.5 -44.5t44.5 -107.5v-36q0 -74 -59 -120q59 -46 59 -120v-56q0 -63 -44.5 -107.5t-107.5 -44.5h-120q-14 0 -23 9t-9 23v572zM308 208q0 36 -26 62t-62 26h-88v-232h88q36 0 62 25.5t26 62.5v56zM308 484q0 36 -26 62t-62 26h-88 v-212h88q36 0 62 25.5t26 62.5v36z" />
<glyph unicode="C" horiz-adv-x="385" d="M169 1q-50 13 -81.5 54t-31.5 93v340q0 52 31.5 93t81.5 54q49 13 97 -7t74 -64q6 -11 2.5 -24t-14.5 -20t-24 -3t-20 15q-15 26 -42.5 37t-56.5 4q-29 -8 -47 -31.5t-18 -53.5v-340q0 -30 18 -53.5t47 -31.5q29 -7 56.5 4t42.5 37q7 11 20 14.5t24 -2.5q11 -7 14.5 -20 t-2.5 -24q-26 -45 -73.5 -65t-97.5 -6z" />
<glyph unicode="D" horiz-adv-x="428" d="M100 636h120q63 0 107.5 -44.5t44.5 -107.5v-332q0 -63 -44.5 -107.5t-107.5 -44.5h-120q-14 0 -23 9t-9 23v572q0 14 9 23t23 9zM308 484q0 36 -25.5 62t-62.5 26h-88v-508h88q37 0 62.5 25.5t25.5 62.5v332z" />
<glyph unicode="E" horiz-adv-x="368" d="M68 32v572q0 14 9 23t23 9h200q14 0 23 -9t9 -23t-9 -23t-23 -9h-168v-212h148q14 0 23 -9t9 -23t-9 -23t-23 -9h-148v-232h168q14 0 23 -9t9 -23t-9 -23t-23 -9h-200q-14 0 -23 9t-9 23z" />
<glyph unicode="F" horiz-adv-x="360" d="M100 0q-13 0 -22.5 9.5t-9.5 22.5v572q0 13 9.5 22.5t22.5 9.5h200q14 0 23 -9t9 -23t-9 -23t-23 -9h-168v-212h148q14 0 23 -9t9 -23t-9 -23t-23 -9h-148v-264q0 -14 -9 -23t-23 -9z" />
<glyph unicode="G" horiz-adv-x="412" d="M56 488q0 52 31.5 92.5t81.5 54.5q49 13 97 -7t74 -64q7 -11 3.5 -24t-15.5 -20q-11 -7 -24 -3t-20 15q-14 25 -41.5 37t-56.5 4q-29 -7 -47.5 -31t-18.5 -54v-340q0 -37 26 -62.5t62 -25.5q37 0 62.5 25.5t25.5 62.5v128h-68q-13 0 -22.5 9.5t-9.5 22.5t9.5 22.5 t22.5 9.5h100q14 0 23 -9t9 -23v-160q0 -63 -44.5 -107.5t-107.5 -44.5t-107.5 44.5t-44.5 107.5v340z" />
<glyph unicode="H" horiz-adv-x="440" d="M308 608q0 13 9.5 22.5t22.5 9.5q14 0 23 -9t9 -23v-580q0 -14 -9 -23t-23 -9q-13 0 -22.5 9.5t-9.5 22.5v268h-176v-268q0 -14 -9 -23t-23 -9q-13 0 -22.5 9.5t-9.5 22.5v580q0 13 9.5 22.5t22.5 9.5q14 0 23 -9t9 -23v-248h176v248z" />
<glyph unicode="I" horiz-adv-x="200" d="M100 -4q-13 0 -22.5 9.5t-9.5 22.5v580q0 13 9.5 22.5t22.5 9.5q14 0 23 -9t9 -23v-580q0 -14 -9 -23t-23 -9z" />
<glyph unicode="J" horiz-adv-x="333" d="M269 148q0 -40 -20.5 -76t-55.5 -56t-76 -20t-76 20q-12 7 -15.5 20t3.5 24t19.5 15t24.5 -3q43 -26 88 0q44 24 44 76v460q0 14 9.5 23t22.5 9t22.5 -9.5t9.5 -22.5v-460z" />
<glyph unicode="K" horiz-adv-x="421" d="M231 371l158 -329q6 -12 1.5 -24.5t-16.5 -18.5t-24.5 -1.5t-17.5 16.5l-144 297l-56 -78v-205q0 -14 -9 -23t-23 -9q-13 0 -22.5 9.5t-9.5 22.5v580q0 13 9.5 22.5t22.5 9.5q14 0 23 -9t9 -23v-265l202 284q8 10 21.5 12.5t23.5 -5.5q11 -8 13 -21t-6 -24z" />
<glyph unicode="L" horiz-adv-x="348" d="M100 0q-14 0 -23 9t-9 23v576q0 14 9 23t23 9q13 0 22.5 -9.5t9.5 -22.5v-544h168q13 0 22.5 -9.5t9.5 -22.5t-9.5 -22.5t-22.5 -9.5h-200z" />
<glyph unicode="M" horiz-adv-x="520" d="M100 -4q-14 0 -23 9t-9 23v580q0 26 25 31q24 5 36 -17q92 -196 131 -279l131 279q10 22 36 17q11 -2 18 -11t7 -20v-580q0 -13 -9.5 -22.5t-22.5 -9.5q-14 0 -23 9t-9 23v437l-99 -211q-10 -18 -29 -18q-21 0 -29 18q-53 112 -99 211v-437q0 -13 -9.5 -22.5t-22.5 -9.5z " />
<glyph unicode="N" horiz-adv-x="480" d="M387 -3q-23 -7 -36 17q-145 300 -219 454v-440q0 -14 -9 -23t-23 -9t-23 9t-9 23v580q0 26 25 31q24 5 36 -17q144 -300 219 -454v440q0 14 9 23t23 9t23 -9t9 -23v-580q0 -26 -25 -31z" />
<glyph unicode="O" d="M208 -4q-63 0 -107.5 44.5t-44.5 107.5v340q0 63 44.5 107.5t107.5 44.5t107.5 -44.5t44.5 -107.5v-340q0 -63 -44.5 -107.5t-107.5 -44.5zM208 576q-37 0 -62.5 -26t-25.5 -62v-340q0 -37 25.5 -62.5t62.5 -25.5q36 0 62 25.5t26 62.5v340q0 36 -26 62t-62 26z" />
<glyph unicode="P" horiz-adv-x="400" d="M68 604q0 14 9 23t23 9h120q63 0 107.5 -44.5t44.5 -107.5v-56q0 -63 -44.5 -107.5t-107.5 -44.5h-88v-248q0 -14 -9 -23t-23 -9t-23 9t-9 23v576zM308 484q0 36 -26 62t-62 26h-88v-232h88q36 0 62 25.5t26 62.5v56z" />
<glyph unicode="Q" d="M56 148v340q0 63 44.5 107.5t107.5 44.5t107.5 -44.5t44.5 -107.5v-340q0 -68 -50 -113l46 -79q7 -11 3 -24t-15 -20q-11 -6 -24 -2.5t-20 14.5l-45 79q-26 -7 -47 -7q-63 0 -107.5 44.5t-44.5 107.5zM208 576q-36 0 -62 -26t-26 -62v-340q0 -37 26 -62.5t62 -25.5 q37 0 62.5 25.5t25.5 62.5v340q0 36 -25.5 62t-62.5 26z" />
<glyph unicode="R" d="M372 428q0 -47 -26 -85t-68 -56l92 -248q5 -12 -0.5 -24.5t-18.5 -16.5q-12 -5 -24.5 0.5t-16.5 18.5l-96 259h-82v-248q0 -14 -9 -23t-23 -9q-13 0 -22.5 9.5t-9.5 22.5v576q0 13 9.5 22.5t22.5 9.5h120q63 0 107.5 -44.5t44.5 -107.5v-56zM220 340q37 0 62.5 25.5 t25.5 62.5v56q0 36 -25.5 62t-62.5 26h-88v-232h88z" />
<glyph unicode="S" horiz-adv-x="382" d="M240 79q34 25 37 67q3 43 -26 72l-160 164q-48 50 -42 117q5 69 60 110q55 42 122 28t101 -73q7 -11 3.5 -24t-15.5 -20q-11 -7 -24 -3t-19 15q-20 34 -59 42t-71 -16q-31 -23 -34 -63q-3 -39 24 -68l160 -165q49 -50 44 -121q-6 -71 -62 -113q-57 -43 -126 -29t-105 75 q-14 28 12 44q11 7 24 3.5t20 -15.5q20 -36 62 -44q41 -8 74 17z" />
<glyph unicode="T" horiz-adv-x="380" d="M60 636h260q14 0 23 -9t9 -23t-9 -23t-23 -9h-98v-544q0 -14 -9 -23t-23 -9q-13 0 -22.5 9.5t-9.5 22.5v544h-98q-13 0 -22.5 9.5t-9.5 22.5t9.5 22.5t22.5 9.5z" />
<glyph unicode="U" horiz-adv-x="424" d="M124 148q0 -37 25.5 -62.5t62.5 -25.5q36 0 62 25.5t26 62.5v460q0 14 9 23t23 9q13 0 22.5 -9.5t9.5 -22.5v-460q0 -63 -45 -107.5t-107 -44.5q-63 0 -107.5 44.5t-44.5 107.5v460q0 14 9 23t23 9q13 0 22.5 -9.5t9.5 -22.5v-460z" />
<glyph unicode="V" horiz-adv-x="448" d="M194 19l-160 580q-4 13 2.5 24.5t19.5 15.5q13 3 24.5 -3.5t14.5 -19.5q89 -322 130 -468l129 468q3 13 14.5 19.5t24.5 3.5q13 -4 19.5 -15.5t2.5 -24.5l-160 -580q-2 -10 -11 -16.5t-19 -6.5q-24 0 -31 23z" />
<glyph unicode="W" horiz-adv-x="698" d="M38 600q-3 14 3.5 25t19.5 14t24.5 -4t14.5 -20q71 -295 109 -451l109 451q5 25 31 25q24 0 31 -25q71 -295 109 -451l109 451q3 13 14 20t24 4t20 -14.5t4 -24.5l-140 -580q-7 -24 -31 -24q-26 0 -31 24q-72 296 -109 452l-109 -452q-7 -24 -31 -24q-26 0 -31 24z" />
<glyph unicode="X" horiz-adv-x="422" d="M47 -1q-12 6 -16.5 18.5t1.5 24.5l143 286l-133 266q-6 11 -1.5 24t16.5 19q11 5 24 1t19 -16l111 -222l111 222q6 12 18.5 16t24.5 -1q12 -6 16 -19t-1 -24l-133 -266l143 -286q5 -12 1 -24.5t-16 -18.5t-24.5 -1.5t-18.5 16.5l-121 242l-121 -242q-6 -12 -19 -16.5 t-24 1.5z" />
<glyph unicode="Y" horiz-adv-x="402" d="M169 28v292l-137 274q-6 11 -1.5 24t16.5 19q11 5 24 1t19 -16l111 -222l111 222q6 12 18.5 16t24.5 -1q12 -6 16.5 -19t-1.5 -24l-137 -274v-292q0 -14 -9.5 -23t-22.5 -9t-22.5 9t-9.5 23z" />
<glyph unicode="Z" horiz-adv-x="384" d="M40 32q0 6 3 12q189 452 221 528h-192q-14 0 -23 9t-9 23t9 23t23 9h240q18 0 27 -14q5 -10 5 -18q0 -4 -2 -12q-190 -453 -222 -528h192q14 0 23 -9t9 -23t-9 -23t-23 -9h-240q-18 0 -27 14q-5 10 -5 18z" />
<glyph unicode="[" horiz-adv-x="256" d="M100 -80q-14 0 -23 9t-9 23v732q0 14 9 23t23 9h100q14 0 23 -9t9 -23t-9 -23t-23 -9h-68v-668h68q14 0 23 -9t9 -23t-9 -23t-23 -9h-100z" />
<glyph unicode="\" d="M118 659l240 -660q5 -13 -0.5 -25t-18.5 -16q-12 -5 -24.5 0.5t-16.5 18.5l-240 660q-4 13 1.5 24.5t17.5 16.5q13 4 24.5 -1.5t16.5 -17.5z" />
<glyph unicode="]" horiz-adv-x="256" d="M156 716q13 0 22.5 -9.5t9.5 -22.5v-732q0 -13 -9.5 -22.5t-22.5 -9.5h-100q-14 0 -23 9t-9 23t9 23t23 9h68v668h-68q-14 0 -23 9t-9 23t9 23t23 9h100z" />
<glyph unicode="^" horiz-adv-x="500" d="M71 404q-10 9 -10.5 22t7.5 23l158 180q9 11 24 11t24 -11l158 -180q8 -10 7.5 -23t-10.5 -22q-11 -9 -24 -8t-22 11q-98 113 -133 152l-133 -152q-9 -10 -22 -11t-24 8z" />
<glyph unicode="_" horiz-adv-x="500" d="M500 -80q13 0 22.5 -9.5t9.5 -22.5t-9.5 -22.5t-22.5 -9.5h-500q-14 0 -23 9t-9 23t9 23t23 9h500z" />
<glyph unicode="`" horiz-adv-x="500" d="M322 562q10 -9 10.5 -22t-8.5 -23t-22 -11t-23 8l-100 90q-10 9 -10.5 22t7.5 23q9 10 22.5 11t23.5 -8z" />
<glyph unicode="a" horiz-adv-x="352" d="M160 262h70v68q0 45 -42 63q-44 17 -74 -15q-9 -9 -21.5 -9t-21.5 9t-9 21.5t9 20.5q28 28 66 35.5t74 -7.5t57.5 -47t21.5 -71v-298q0 -13 -9 -21.5t-21 -8.5h-100q-54 0 -92 38t-38 92t38 92t92 38zM90 132q0 -29 20.5 -49.5t49.5 -20.5h70v140h-70q-29 0 -49.5 -20.5 t-20.5 -49.5z" />
<glyph unicode="b" horiz-adv-x="388" d="M100 2q-13 0 -21.5 8.5t-8.5 21.5v596q0 13 8.5 21.5t21.5 8.5q12 0 21 -8.5t9 -21.5v-174h70q53 0 91.5 -38t38.5 -92v-192q0 -54 -38.5 -92t-91.5 -38h-100zM200 394h-70v-332h70q29 0 49.5 20.5t20.5 49.5v192q0 29 -20.5 49.5t-49.5 20.5z" />
<glyph unicode="c" horiz-adv-x="328" d="M138 8q-37 15 -58.5 47.5t-21.5 72.5v200q0 40 21.5 72.5t58.5 47.5t75 7.5t67 -35.5q8 -9 8 -21.5t-8 -21.5q-9 -8 -21.5 -8t-21.5 8q-32 33 -76 16q-19 -8 -31 -26t-12 -39v-200q0 -21 12 -39t31 -26q43 -18 76 15q9 9 21.5 9t21.5 -9q8 -8 8 -20.5t-8 -21.5 q-29 -28 -67 -35.5t-75 7.5z" />
<glyph unicode="d" horiz-adv-x="388" d="M188 2q-54 0 -92 38t-38 92v192q0 54 38 92t92 38h70v174q0 13 8.5 21.5t21.5 8.5q12 0 21 -8.5t9 -21.5v-596q0 -13 -9 -21.5t-21 -8.5h-100zM188 394q-29 0 -49.5 -20.5t-20.5 -49.5v-192q0 -29 20.5 -49.5t49.5 -20.5h70v332h-70z" />
<glyph unicode="e" horiz-adv-x="368" d="M138 8q-37 15 -58.5 47.5t-21.5 72.5v200q0 54 38 92t92 38t92 -38t38 -92v-100q0 -13 -8.5 -21.5t-21.5 -8.5h-170v-70q0 -21 12 -39t31 -26q43 -18 76 15q9 9 21.5 9t21.5 -9q9 -8 9 -20.5t-9 -21.5q-28 -28 -66.5 -35.5t-75.5 7.5zM188 398q-29 0 -49.5 -20.5 t-20.5 -49.5v-70h140v70q0 29 -20.5 49.5t-49.5 20.5z" />
<glyph unicode="f" horiz-adv-x="296" d="M56 394q-13 0 -21.5 8.5t-8.5 21.5t8.5 21.5t21.5 8.5h50v74q0 54 38 92t92 38q13 0 21.5 -8.5t8.5 -21.5t-8.5 -21.5t-21.5 -8.5q-29 0 -49.5 -20.5t-20.5 -49.5v-74h70q13 0 21.5 -8.5t8.5 -21.5t-8.5 -21.5t-21.5 -8.5h-70v-366q0 -13 -8.5 -21.5t-21.5 -8.5 t-21.5 8.5t-8.5 21.5v366h-50z" />
<glyph unicode="g" horiz-adv-x="384" d="M188 2q-54 0 -92 38t-38 92v192q0 54 38 92t92 38h100q13 0 21.5 -8.5t8.5 -21.5v-496q0 -40 -21.5 -72.5t-58.5 -47.5t-75 -7.5t-67 35.5q-9 9 -9 21.5t9 20.5q9 9 21.5 9t21.5 -9q33 -33 76 -15q19 8 31 26t12 39v74h-70zM188 394q-29 0 -49.5 -20.5t-20.5 -49.5v-192 q0 -29 20.5 -49.5t49.5 -20.5h70v332h-70z" />
<glyph unicode="h" horiz-adv-x="392" d="M100 -2q-12 0 -21 8.5t-9 21.5v600q0 13 9 21.5t21 8.5q13 0 21.5 -8.5t8.5 -21.5v-174h70q54 0 92 -38t38 -92v-296q0 -13 -8.5 -21.5t-21.5 -8.5q-12 0 -21 8.5t-9 21.5v296q0 29 -20.5 49.5t-49.5 20.5h-70v-366q0 -13 -8.5 -21.5t-21.5 -8.5z" />
<glyph unicode="i" horiz-adv-x="200" d="M100 538q-16 0 -28 12t-12 28t12 28t28 12t28 -12t12 -28t-12 -28t-28 -12zM130 28q0 -13 -8.5 -21.5t-21.5 -8.5q-12 0 -21 8.5t-9 21.5v400q0 13 9 21.5t21 8.5q13 0 21.5 -8.5t8.5 -21.5v-400z" />
<glyph unicode="j" horiz-adv-x="208" d="M108 538q-16 0 -28 12t-12 28t12 28t28 12t28 -12t12 -28t-12 -28t-28 -12zM8 -202q-12 0 -21 8.5t-9 21.5t9 21.5t21 8.5q29 0 49.5 20.5t20.5 49.5v500q0 13 9 21.5t21 8.5q13 0 21.5 -8.5t8.5 -21.5v-500q0 -54 -38 -92t-92 -38z" />
<glyph unicode="k" horiz-adv-x="380" d="M220 272l126 -230q6 -10 2.5 -22t-14.5 -18q-10 -6 -22.5 -2.5t-18.5 13.5l-115 211l-48 -53v-143q0 -13 -9 -21.5t-21 -8.5q-13 0 -21.5 8.5t-8.5 21.5v600q0 13 8.5 21.5t21.5 8.5q12 0 21 -8.5t9 -21.5v-367l167 187q8 9 20.5 9.5t22.5 -7.5q9 -8 9.5 -20.5 t-7.5 -21.5z" />
<glyph unicode="l" horiz-adv-x="200" d="M122 2q-55 33 -55 95v531q0 13 9 21.5t21 8.5q13 0 21.5 -8.5t8.5 -21.5v-531q0 -28 25 -43q11 -6 14.5 -18.5t-3.5 -22.5q-6 -11 -18 -14t-23 3z" />
<glyph unicode="m" horiz-adv-x="592" d="M270 394h-140v-366q0 -13 -9 -21.5t-21 -8.5q-13 0 -21.5 8.5t-8.5 21.5v396q0 13 8.5 21.5t21.5 8.5h300q53 0 91.5 -38t38.5 -92v-296q0 -13 -9 -21.5t-21 -8.5q-13 0 -21.5 8.5t-8.5 21.5v296q0 29 -20.5 49.5t-49.5 20.5h-70v-366q0 -13 -9 -21.5t-21 -8.5 q-13 0 -21.5 8.5t-8.5 21.5v366z" />
<glyph unicode="n" horiz-adv-x="392" d="M100 -2q-13 0 -21.5 8.5t-8.5 21.5v396q0 13 8.5 21.5t21.5 8.5h100q53 0 91.5 -38t38.5 -92v-296q0 -13 -9 -21.5t-21 -8.5q-13 0 -21.5 8.5t-8.5 21.5v296q0 29 -20.5 49.5t-49.5 20.5h-70v-366q0 -13 -9 -21.5t-21 -8.5z" />
<glyph unicode="o" horiz-adv-x="376" d="M188 -2q-54 0 -92 38t-38 92v200q0 54 38 92t92 38q53 0 91.5 -38t38.5 -92v-200q0 -54 -38.5 -92t-91.5 -38zM188 398q-29 0 -49.5 -20.5t-20.5 -49.5v-200q0 -29 20.5 -49.5t49.5 -20.5t49.5 20.5t20.5 49.5v200q0 29 -20.5 49.5t-49.5 20.5z" />
<glyph unicode="p" horiz-adv-x="388" d="M100 -202q-13 0 -21.5 8.5t-8.5 21.5v596q0 13 8.5 21.5t21.5 8.5h100q53 0 91.5 -38t38.5 -92v-192q0 -54 -38.5 -92t-91.5 -38h-70v-174q0 -13 -9 -21.5t-21 -8.5zM270 324q0 29 -20.5 49.5t-49.5 20.5h-70v-332h70q29 0 49.5 20.5t20.5 49.5v192z" />
<glyph unicode="q" horiz-adv-x="388" d="M188 2q-54 0 -92 38t-38 92v192q0 54 38 92t92 38h100q12 0 21 -8.5t9 -21.5v-596q0 -13 -9 -21.5t-21 -8.5q-13 0 -21.5 8.5t-8.5 21.5v174h-70zM188 394q-29 0 -49.5 -20.5t-20.5 -49.5v-192q0 -29 20.5 -49.5t49.5 -20.5h70v332h-70z" />
<glyph unicode="r" horiz-adv-x="299" d="M100 -2q-13 0 -21.5 8.5t-8.5 21.5v396q0 13 8.5 21.5t21.5 8.5h100q34 0 65 -17q11 -7 14 -18.5t-3 -22.5t-18.5 -14.5t-22.5 3.5q-17 9 -35 9h-70v-366q0 -13 -8.5 -21.5t-21.5 -8.5z" />
<glyph unicode="s" horiz-adv-x="329" d="M202 75q23 21 20 51q-2 30 -27 48l-93 66q-46 32 -51 90q-3 59 39 96q42 39 99 31q58 -10 86 -59q6 -10 2.5 -22.5t-13.5 -18.5t-22.5 -2.5t-18.5 13.5q-14 24 -43 29t-50 -15q-21 -19 -19 -48t26 -45l93 -65q49 -35 52 -94q5 -59 -40 -99q-43 -40 -102 -32q-59 9 -89 61 q-6 10 -2.5 22.5t13.5 18.5t22.5 2.5t18.5 -13.5q16 -26 46 -31q29 -5 53 16z" />
<glyph unicode="t" horiz-adv-x="296" d="M56 394q-13 0 -21.5 8.5t-8.5 21.5t8.5 21.5t21.5 8.5h50v174q0 13 8.5 21.5t21.5 8.5t21.5 -8.5t8.5 -21.5v-174h70q13 0 21.5 -8.5t8.5 -21.5t-8.5 -21.5t-21.5 -8.5h-70v-266q0 -29 20.5 -49.5t49.5 -20.5q13 0 21.5 -8.5t8.5 -21.5t-8.5 -21.5t-21.5 -8.5 q-54 0 -92 38t-38 92v266h-50z" />
<glyph unicode="u" horiz-adv-x="392" d="M192 2q-54 0 -92 38t-38 92v296q0 13 8.5 21.5t21.5 8.5t21.5 -8.5t8.5 -21.5v-296q0 -29 20.5 -49.5t49.5 -20.5h70v366q0 13 8.5 21.5t21.5 8.5t21.5 -8.5t8.5 -21.5v-396q0 -13 -8.5 -21.5t-21.5 -8.5h-100z" />
<glyph unicode="v" horiz-adv-x="370" d="M156 19l-120 400q-3 12 3 23t18 15q11 3 22 -3t15 -17q58 -194 91 -305l91 305q4 11 15 17t23 3q12 -4 18 -15t2 -23l-120 -400q-7 -21 -29 -21t-29 21z" />
<glyph unicode="w" horiz-adv-x="538" d="M139 21l-100 400q-3 12 3.5 22.5t18.5 13.5t22.5 -3.5t13.5 -18.5q42 -166 71 -283l71 283q7 23 29 23q24 0 29 -23q42 -166 71 -283l71 283q3 12 13.5 18.5t23.5 3.5q12 -3 18 -13.5t3 -22.5l-100 -400q-5 -23 -29 -23q-22 0 -29 23q-41 166 -71 283l-71 -283 q-5 -23 -29 -23q-22 0 -29 23z" />
<glyph unicode="x" horiz-adv-x="360" d="M54 2q-11 6 -14.5 18t2.5 22l104 190l-100 181q-6 11 -2.5 23t14.5 18q10 6 22.5 2.5t18.5 -14.5l81 -148l82 148q6 11 18 14.5t23 -2.5t14.5 -18t-2.5 -23l-100 -181l104 -190q6 -11 2.5 -22.5t-14.5 -17.5t-23 -3t-18 14l-86 156l-85 -156q-6 -10 -18.5 -13.5 t-22.5 2.5z" />
<glyph unicode="y" horiz-adv-x="369" d="M50 -202q-13 0 -21.5 8.5t-8.5 21.5t8.5 21.5t21.5 8.5q23 0 41.5 14t25.5 36l36 120l-117 391q-4 12 2 23t18 15q12 3 22.5 -3t14.5 -17l91 -305l92 305q3 11 14 17t23 3q12 -4 18 -15t2 -23l-120 -400l-38 -128q-14 -43 -47 -67q-35 -26 -78 -26z" />
<glyph unicode="z" horiz-adv-x="344" d="M42 32q0 6 3 14q142 279 178 348h-151q-13 0 -21.5 8.5t-8.5 21.5t8.5 21.5t21.5 8.5h200q17 0 25 -14q5 -8 5 -16q0 -4 -4 -14q-142 -279 -177 -348h151q12 0 21 -8.5t9 -21.5t-9 -21.5t-21 -8.5h-200q-18 0 -26 14q-4 7 -4 16z" />
<glyph unicode="{" horiz-adv-x="256" d="M160 408q0 -48 -34 -80q34 -32 34 -80v-220q0 -20 14 -34t34 -14q14 0 23 -9t9 -23t-9 -23t-23 -9q-46 0 -79 33t-33 79v220q0 20 -14 34t-34 14q-14 0 -23 9t-9 23t9 23t23 9q20 0 34 14t14 34v200q0 46 33 79t79 33q14 0 23 -9t9 -23t-9 -23t-23 -9q-20 0 -34 -14 t-14 -34v-200z" />
<glyph unicode="|" horiz-adv-x="208" d="M109 860q13 0 22.5 -9t9.5 -23v-1000q0 -14 -9.5 -23t-22.5 -9t-22.5 9t-9.5 23v1000q0 14 9.5 23t22.5 9z" />
<glyph unicode="}" horiz-adv-x="256" d="M96 248q0 49 33 80q-33 31 -33 80v200q0 20 -14 34t-34 14q-14 0 -23 9t-9 23t9 23t23 9q46 0 79 -33t33 -79v-200q0 -20 14 -34t34 -14q13 0 22.5 -9.5t9.5 -22.5t-9.5 -22.5t-22.5 -9.5q-20 0 -34 -14t-14 -34v-220q0 -46 -33 -79t-79 -33q-14 0 -23 9t-9 23t9 23t23 9 q20 0 34 14t14 34v220z" />
<glyph unicode="~" d="M360 303q10 -7 13 -19.5t-4 -22.5q-28 -44 -80 -52q-51 -9 -93 22l-12 9q-20 16 -46 11q-25 -5 -39 -26q-7 -11 -19 -13t-23 5q-10 7 -13 19.5t4 22.5q28 44 80 52q51 9 93 -22l12 -9q20 -16 46 -11q25 5 39 26q7 10 19.5 12.5t22.5 -4.5z" />
<glyph unicode="&#xa1;" horiz-adv-x="200" d="M100 460q17 0 29.5 -12.5t12.5 -29.5t-12.5 -29.5t-29.5 -12.5t-29.5 12.5t-12.5 29.5t12.5 29.5t29.5 12.5zM100 300q14 0 23 -9t9 -23v-400q0 -14 -9 -23t-23 -9q-13 0 -22.5 9.5t-9.5 22.5v400q0 13 9.5 22.5t22.5 9.5z" />
<glyph unicode="&#xa2;" d="M196 391q-42 -18 -42 -63v-200q0 -45 42 -63q13 -5 25 -5h1h1q27 0 47 20q9 9 22 9t23 -9q9 -10 9 -23t-9 -22q-23 -25 -61 -35v-52q0 -13 -9.5 -22.5t-22.5 -9.5q-14 0 -23 9t-9 23v52q-10 1 -19 6q-37 16 -59 49t-22 73v200q0 40 22 73t59 49q12 4 19 6v52q0 14 9 23 t23 9q13 0 22.5 -9.5t9.5 -22.5v-52q38 -10 61 -35q9 -9 9 -22t-9 -23q-10 -9 -23 -9t-22 9q-20 20 -47 20h-1h-1q-12 0 -25 -5z" />
<glyph unicode="&#xa3;" d="M348 64q14 0 23 -9t9 -23t-9 -23t-23 -9h-280q-11 0 -20.5 7.5t-10.5 19.5q-5 26 21 35q26 10 42 32.5t16 50.5v151h-48q-13 0 -22.5 9.5t-9.5 22.5t9.5 22.5t22.5 9.5h48v148q0 45 27.5 80.5t70.5 46.5q43 12 84.5 -5t64.5 -56q6 -11 2.5 -24t-14.5 -20t-24 -3t-20 15 q-11 20 -32.5 29t-43.5 3q-23 -6 -37 -24.5t-14 -41.5v-148h88q14 0 23 -9t9 -23t-9 -23t-23 -9h-88v-151q0 -44 -23 -81h191z" />
<glyph unicode="&#xa4;" horiz-adv-x="700" d="M664 403q5 -3 5 -10v-296q0 -7 -7 -11l-60 -30l-121 -61v0l-61 -30l-1 -1h-1q-1 -1 -3 -1v0q-3 0 -3 1h-1q-1 0 -2 1l-363 181q-7 4 -7 11v297q0 1 1 2v1q0 1 1 2v1l121 208q5 10 16 5l363 -181l1 -1h1zM177 646l-109 -187l342 -171l109 188zM403 -5v270l-339 169v-270z M487 25l98 49l-1 269l-97 -48v-270zM645 104v283l-106 76l-112 -194v-274l36 18v289q0 8 7 11l121 61q4 3 12 -1q5 -3 5 -10l1 -277zM151 210q-7 4 -7 11v123q0 6 6 11q5 3 12 0l146 -73q7 -4 7 -11v-123q0 -8 -6 -11q-4 -2 -6 -2t-6 2zM169 325v-97l122 -61v97z" />
<glyph unicode="&#xa5;" d="M176 28v108h-84q-14 0 -23 9t-9 23t9 23t23 9h84v96h-84q-14 0 -23 9t-9 23t9 23t23 9h64l-117 234q-6 11 -1.5 24t16.5 19q11 5 24 1t19 -16l111 -222l111 222q6 12 18.5 16t24.5 -1q12 -6 16 -19t-1 -24l-117 -234h72q14 0 23 -9t9 -23t-9 -23t-23 -9h-92v-96h92 q14 0 23 -9t9 -23t-9 -23t-23 -9h-92v-108q0 -14 -9 -23t-23 -9t-23 9t-9 23z" />
<glyph unicode="&#xa6;" horiz-adv-x="208" d="M104 260q14 0 23 -9t9 -23v-400q0 -14 -9 -23t-23 -9t-23 9t-9 23v400q0 14 9 23t23 9zM104 860q14 0 23 -9t9 -23v-400q0 -14 -9 -23t-23 -9t-23 9t-9 23v400q0 14 9 23t23 9z" />
<glyph unicode="&#xa7;" d="M290 383q27 -21 39 -52.5t5 -64.5q-7 -40 -38 -69q28 -33 28 -77q2 -58 -42 -94q-44 -37 -100 -28q-57 10 -85 59q-7 11 -3.5 24t15.5 20q11 6 23.5 2.5t19.5 -14.5q14 -23 41 -28q26 -5 47 13q22 18 20 45q0 28 -21 44l-112 89h-1q-57 48 -43 118q8 42 38 69 q-27 32 -29 77q0 59 43 94q42 38 100 28q57 -10 85 -59q7 -11 3.5 -24t-15.5 -20q-11 -7 -23.5 -3t-19.5 15q-14 23 -41 28q-26 5 -47 -13q-21 -16 -21 -45q2 -28 22 -44zM166 303l80 -64q22 15 25 38q7 34 -20 56l-80 64q-21 -15 -26 -38q-6 -35 21 -56z" />
<glyph unicode="&#xa8;" horiz-adv-x="500" d="M288 578q0 17 12.5 29.5t29.5 12.5t29.5 -12.5t12.5 -29.5t-12.5 -29.5t-29.5 -12.5t-29.5 12.5t-12.5 29.5zM128 578q0 17 12.5 29.5t29.5 12.5t29.5 -12.5t12.5 -29.5t-12.5 -29.5t-29.5 -12.5t-29.5 12.5t-12.5 29.5z" />
<glyph unicode="&#xa9;" horiz-adv-x="718" d="M347 436q-16 -4 -26.5 -17.5t-10.5 -30.5v-140q0 -17 10.5 -30.5t26.5 -17.5t31.5 2.5t23.5 20.5q7 11 19 14.5t23 -3.5q11 -6 14.5 -18.5t-3.5 -22.5q-19 -33 -53.5 -47.5t-70.5 -4.5t-59 40t-23 67v140q0 37 23 67t59 40t70.5 -5t53.5 -47q7 -10 3.5 -22.5t-14.5 -18.5 q-11 -7 -23 -3.5t-19 14.5q-8 14 -23.5 20.5t-31.5 2.5zM680 318q0 -133 -94 -227t-227 -94q-132 0 -226 94t-94 227t94 227q93 93 226 93q134 0 227 -93q94 -94 94 -227zM359 58q108 0 184 76t76 184q0 107 -76 183t-184 76q-107 0 -183 -76t-76 -183q0 -108 76 -184 t183 -76z" />
<glyph unicode="&#xaa;" horiz-adv-x="305" d="M179 633q32 -8 52.5 -34.5t20.5 -60.5v-210q0 -12 -8.5 -20.5t-20.5 -8.5h-70q-41 0 -70 29t-29 70t29 70t70 29h41v41q0 32 -30 40t-47 -19q-6 -11 -17 -14t-22 3q-10 6 -13.5 17.5t2.5 21.5q17 29 48 42t64 4zM112 398q0 -17 12 -29t29 -12h41v82h-41q-17 0 -29 -12 t-12 -29z" />
<glyph unicode="&#xab;" horiz-adv-x="419" d="M356 408q0 -10 -4 -15q-42 -78 -55 -101l59 -109q4 -7 4 -15q0 -18 -16 -28q-12 -7 -24.5 -3t-19.5 16l-68 123q-8 16 0 31l64 116q7 12 19.5 16t24.5 -3q16 -10 16 -28zM164 140q-12 -7 -24.5 -3t-19.5 16l-68 123q-8 16 0 31l64 116q7 12 19.5 16t24.5 -3 q16 -10 16 -28q0 -10 -4 -15q-42 -78 -55 -101l59 -109q4 -7 4 -15q0 -18 -16 -28z" />
<glyph unicode="&#xac;" d="M328 320q14 0 23 -9t9 -23v-120q0 -14 -9 -23t-23 -9q-13 0 -22.5 9.5t-9.5 22.5v88h-208q-13 0 -22.5 9.5t-9.5 22.5t9.5 22.5t22.5 9.5h240z" />
<glyph unicode="&#xad;" d="M360 288q0 -13 -9.5 -22.5t-22.5 -9.5h-240q-14 0 -23 9t-9 23t9 23t23 9h240q13 0 22.5 -9.5t9.5 -22.5z" />
<glyph unicode="&#xae;" horiz-adv-x="718" d="M289 137q-12 0 -21 9t-9 22v296q0 13 9 21.5t21 8.5h80q46 0 78.5 -32t32.5 -78q0 -32 -17 -58.5t-45 -40.5l58 -102q6 -11 3 -23t-14 -19q-11 -6 -23.5 -2.5t-18.5 14.5l-69 120h-34v-105q0 -13 -9 -22t-22 -9zM419 384q0 20 -14.5 34.5t-35.5 14.5h-49v-99h49 q21 0 35.5 15t14.5 35zM39 318q0 133 94 227q93 93 226 93q134 0 227 -93q94 -94 94 -227t-94 -227t-227 -94q-132 0 -226 94t-94 227zM359 577q-107 0 -183 -76t-76 -183q0 -108 76 -184t183 -76q108 0 184 76t76 184q0 107 -76 183t-184 76z" />
<glyph unicode="&#xaf;" horiz-adv-x="500" d="M500 780q13 0 22.5 -9.5t9.5 -22.5t-9.5 -22.5t-22.5 -9.5h-500q-14 0 -23 9t-9 23t9 23t23 9h500z" />
<glyph unicode="&#xb0;" horiz-adv-x="313" d="M276 518q0 -49 -35 -84t-84 -35t-84 34.5t-35 84.5q0 49 35 84t84 35t84 -35t35 -84zM96 518q0 -26 18 -43.5t43 -17.5t43 17.5t18 43.5t-18 43.5t-43 17.5t-43 -17.5t-18 -43.5z" />
<glyph unicode="&#xb1;" d="M328 64q14 0 23 -9t9 -23t-9 -23t-23 -9h-240q-13 0 -22.5 9.5t-9.5 22.5t9.5 22.5t22.5 9.5h240zM328 320q14 0 23 -9t9 -23t-9 -23t-23 -9h-88v-88q0 -14 -9 -23t-23 -9q-13 0 -22.5 9.5t-9.5 22.5v88h-88q-13 0 -22.5 9.5t-9.5 22.5t9.5 22.5t22.5 9.5h88v88 q0 13 9.5 22.5t22.5 9.5q14 0 23 -9t9 -23v-88h88z" />
<glyph unicode="&#xb2;" horiz-adv-x="297" d="M227 485q-58 -93 -91 -144h78q12 0 20.5 -8.5t8.5 -20.5t-8.5 -20.5t-20.5 -8.5h-131q-17 0 -25 15q-9 16 1 29l120 189q10 14 5 31q-3 16 -19 26q-14 10 -31 5q-16 -4 -26 -19q-6 -11 -17 -14t-22 3q-10 6 -13.5 17.5t2.5 21.5q21 36 61 47q41 9 76 -12q36 -20 45 -62 q9 -41 -13 -75z" />
<glyph unicode="&#xb3;" horiz-adv-x="296" d="M213 468q29 -29 29 -70v-20q0 -34 -20.5 -60.5t-52.5 -34.5q-33 -9 -64 4t-48 42q-6 10 -2.5 21.5t13.5 17.5q11 6 22 3t17 -14q17 -27 47 -19t30 40v20q0 17 -12 29t-29 12q-12 0 -20.5 8.5t-8.5 20.5t8.5 20.5t20.5 8.5q23 0 36 20q11 21 0 42q-13 20 -36 20t-36 -20 q-6 -11 -17 -14t-22 3q-10 6 -13.5 17.5t2.5 21.5q29 50 86 50q58 0 85 -50q29 -49 0 -98q-6 -12 -15 -21z" />
<glyph unicode="&#xb4;" horiz-adv-x="500" d="M279 652q10 9 23 8t22 -11t8.5 -23t-10.5 -22l-100 -90q-10 -9 -23.5 -8t-21.5 11q-9 10 -8.5 23t10.5 22z" />
<glyph unicode="&#xb5;" horiz-adv-x="400" d="M300 458q13 0 21.5 -8.5t8.5 -21.5v-400q0 -13 -8.5 -21.5t-21.5 -8.5q-22 0 -29 21q-32 -21 -71 -21t-70 20v-190q0 -13 -8.5 -21.5t-21.5 -8.5t-21.5 8.5t-8.5 21.5v600q0 13 8.5 21.5t21.5 8.5t21.5 -8.5t8.5 -21.5v-300q0 -29 20.5 -49.5t49.5 -20.5t49.5 20.5 t20.5 49.5v300q0 13 8.5 21.5t21.5 8.5z" />
<glyph unicode="&#xb6;" horiz-adv-x="480" d="M434 634q13 0 22 -8.5t9 -21.5t-9 -22t-22 -9h-39v-625q0 -13 -9 -22t-22 -9t-21.5 9t-8.5 22v625h-79v-625q0 -13 -9 -22t-22 -9t-21.5 9t-8.5 22v385h-10q-62 0 -106 44.5t-44 106.5t44 106t106 44h250zM194 394v179h-10q-37 0 -63 -26t-26 -63t26 -63.5t63 -26.5h10z " />
<glyph unicode="&#xb7;" horiz-adv-x="192" d="M54 388q0 17 12.5 29.5t29.5 12.5t29.5 -12.5t12.5 -29.5t-12.5 -29.5t-29.5 -12.5t-29.5 12.5t-12.5 29.5z" />
<glyph unicode="&#xb8;" horiz-adv-x="500" d="M220 28q0 14 9 23t23 9t23 -9t9 -23v-61q0 -65 -56 -97q-11 -7 -24 -3.5t-20 14.5q-14 28 12 44q24 14 24 42v61z" />
<glyph unicode="&#xb9;" horiz-adv-x="234" d="M155 635q18 -8 18 -27v-300q0 -12 -8.5 -20.5t-20.5 -8.5t-20.5 8.5t-8.5 20.5v231l-39 -40q-9 -8 -21 -8t-20 8t-8 20t8 21l89 88q12 14 31 7z" />
<glyph unicode="&#xba;" horiz-adv-x="305" d="M153 637q41 0 70 -29.5t29 -69.5v-140q0 -41 -29 -70t-70 -29t-70 29t-29 70v140q0 41 29 70t70 29zM153 357q17 0 29 12t12 29v140q0 17 -12 29t-29 12t-29 -12t-12 -29v-140q0 -17 12 -29t29 -12z" />
<glyph unicode="&#xbb;" horiz-adv-x="419" d="M239 168q0 5 4 15q47 85 60 109l-56 101q-4 8 -4 15q0 19 17 28q11 7 24 3t19 -16l64 -116q9 -15 0 -31l-68 -123q-6 -12 -19 -16t-24 3q-17 9 -17 28zM59 168q0 5 4 15q47 85 60 109l-56 101q-4 8 -4 15q0 19 17 28q11 7 24 3t19 -16l64 -116q9 -15 0 -31l-68 -123 q-6 -12 -19 -16t-24 3q-17 9 -17 28z" />
<glyph unicode="&#xbc;" horiz-adv-x="598" d="M115 308v231l-39 -40q-9 -8 -21 -8t-20 8t-8 20t8 21l89 88q12 14 31 7q18 -8 18 -27v-300q0 -12 -8.5 -20.5t-20.5 -8.5t-20.5 8.5t-8.5 20.5zM536 137q12 0 20.5 -8.5t8.5 -20.5t-8.5 -20.5t-20.5 -8.5h-23v-51q0 -12 -8.5 -20.5t-20.5 -8.5t-20.5 8.5t-8.5 20.5v51 h-100q-16 0 -24 13q-9 13 -3 27l89 220q5 11 16 15.5t22 0.5q18 -8 18 -27q0 -3 -2 -11q-52 -127 -74 -180h58v31q0 12 8.5 20.5t20.5 8.5t20.5 -8.5t8.5 -20.5v-31h23zM438 637q12 -6 16 -18.5t-1 -24.5l-280 -580q-6 -12 -18.5 -16.5t-24.5 1.5t-16.5 18.5t1.5 24.5 l280 580q6 12 18.5 16t24.5 -1z" />
<glyph unicode="&#xbd;" horiz-adv-x="596" d="M115 308v231l-39 -40q-9 -8 -21 -8t-20 8t-8 20t8 21l89 88q12 14 31 7q18 -8 18 -27v-300q0 -12 -8.5 -20.5t-20.5 -8.5t-20.5 8.5t-8.5 20.5zM547 205q-58 -93 -91 -144h78q12 0 20.5 -8.5t8.5 -20.5t-8.5 -20.5t-20.5 -8.5h-131q-17 0 -25 15q-9 16 1 29l120 189 q10 14 5 31q-3 16 -19 26q-14 10 -31 5q-16 -4 -26 -19q-6 -11 -17 -14t-22 3q-10 6 -13.5 17.5t2.5 21.5q21 36 61 47q41 9 76 -12q36 -20 45 -62q9 -41 -13 -75zM438 637q12 -6 16 -18.5t-1 -24.5l-280 -580q-6 -12 -18.5 -16.5t-24.5 1.5t-16.5 18.5t1.5 24.5l280 580 q6 12 18.5 16t24.5 -1z" />
<glyph unicode="&#xbe;" horiz-adv-x="628" d="M223 378q0 -34 -20.5 -60.5t-52.5 -34.5q-33 -9 -64 4t-48 42q-6 10 -2.5 21.5t13.5 17.5q11 6 22 3t17 -14q17 -27 47 -19t30 40v20q0 17 -12 29t-29 12q-12 0 -20.5 8.5t-8.5 20.5t8.5 20.5t20.5 8.5q23 0 36 20q11 21 0 42q-13 20 -36 20t-36 -20q-6 -11 -17 -14 t-22 3q-10 6 -13.5 17.5t2.5 21.5q29 50 86 50q58 0 85 -50q29 -49 0 -98q-6 -12 -15 -21q29 -29 29 -70v-20zM566 137q12 0 20.5 -8.5t8.5 -20.5t-8.5 -20.5t-20.5 -8.5h-23v-51q0 -12 -8.5 -20.5t-20.5 -8.5t-20.5 8.5t-8.5 20.5v51h-100q-16 0 -24 13q-9 13 -3 27l89 220 q5 11 16 15.5t22 0.5q18 -8 18 -27q0 -3 -2 -11q-52 -127 -74 -180h58v31q0 12 8.5 20.5t20.5 8.5t20.5 -8.5t8.5 -20.5v-31h23zM468 637q12 -6 16 -18.5t-1 -24.5l-280 -580q-6 -12 -18.5 -16.5t-24.5 1.5t-16.5 18.5t1.5 24.5l280 580q6 12 18.5 16t24.5 -1z" />
<glyph unicode="&#xbf;" horiz-adv-x="357" d="M150 418q0 17 12.5 29.5t29.5 12.5t29.5 -12.5t12.5 -29.5t-12.5 -29.5t-29.5 -12.5t-29.5 12.5t-12.5 29.5zM100 -153q-54 42 -59 110q-5 69 43 118l51 51q25 27 25 62v80q0 13 9.5 22.5t22.5 9.5q14 0 23 -9t9 -23v-80q0 -63 -44 -107l-50 -51q-28 -28 -25 -68 q2 -40 34 -64t71 -16t59 42q6 11 19 14.5t24 -2.5q12 -7 15.5 -20t-3.5 -24q-35 -61 -102 -73q-66 -14 -122 28z" />
<glyph unicode="&#xc0;" horiz-adv-x="432" d="M142 849q9 10 22 11t23 -8l100 -90q10 -9 11 -22t-8 -23t-22 -11t-23 8l-100 90q-10 9 -11 22t8 23zM247 616l160 -580q4 -13 -3 -24t-20 -15t-24 2.5t-15 19.5q-13 49 -32 117h-194l-32 -117q-4 -13 -15.5 -19.5t-24.5 -2.5t-19.5 15t-2.5 24l160 580q7 24 31 24t31 -24 zM137 200h158q-16 58 -45.5 166.5t-33.5 121.5q-4 -13 -33.5 -121.5t-45.5 -166.5z" />
<glyph unicode="&#xc1;" horiz-adv-x="432" d="M245 852q10 9 23 8t22 -11t8 -23t-11 -22l-100 -90q-10 -9 -23 -8t-22 11t-8 23t11 22zM247 616l160 -580q4 -13 -3 -24t-20 -15t-24 2.5t-15 19.5q-13 49 -32 117h-194l-32 -117q-4 -13 -15.5 -19.5t-24.5 -2.5t-19.5 15t-2.5 24l160 580q7 24 31 24t31 -24zM137 200 h158q-16 58 -45.5 166.5t-33.5 121.5q-4 -13 -33.5 -121.5t-45.5 -166.5z" />
<glyph unicode="&#xc2;" horiz-adv-x="432" d="M197 832q19 16 38 0l90 -70q10 -8 11.5 -20t-6.5 -23q-7 -10 -20 -11.5t-23 6.5q-47 37 -71 55l-71 -55q-10 -8 -23 -6.5t-20 11.5q-8 10 -6.5 23t11.5 20zM247 616l160 -580q4 -13 -3 -24t-20 -15t-24 2.5t-15 19.5q-13 49 -32 117h-194l-32 -117q-4 -13 -15.5 -19.5 t-24.5 -2.5t-19.5 15t-2.5 24l160 580q7 24 31 24t31 -24zM137 200h158q-16 58 -45.5 166.5t-33.5 121.5q-4 -13 -33.5 -121.5t-45.5 -166.5z" />
<glyph unicode="&#xc3;" horiz-adv-x="432" d="M152 749q-18 -25 -43 -8q-10 7 -12.5 19.5t4.5 22.5q22 33 60 39q39 6 70 -17l8 -6q10 -8 22 -5q12 1 20 13q7 11 19 13t23 -5q10 -7 13 -19.5t-4 -22.5q-22 -33 -60 -39q-39 -6 -70 17l-8 6q-11 6 -23 5q-12 -2 -19 -13zM247 616l160 -580q4 -13 -3 -24t-20 -15t-24 2.5 t-15 19.5q-13 49 -32 117h-194l-32 -117q-4 -13 -15.5 -19.5t-24.5 -2.5t-19.5 15t-2.5 24l160 580q7 24 31 24t31 -24zM137 200h158q-16 58 -45.5 166.5t-33.5 121.5q-4 -13 -33.5 -121.5t-45.5 -166.5z" />
<glyph unicode="&#xc4;" horiz-adv-x="432" d="M296 736q-17 0 -29.5 12.5t-12.5 29.5t12.5 29.5t29.5 12.5t29.5 -12.5t12.5 -29.5t-12.5 -29.5t-29.5 -12.5zM136 820q17 0 29.5 -12.5t12.5 -29.5t-12.5 -29.5t-29.5 -12.5t-29.5 12.5t-12.5 29.5t12.5 29.5t29.5 12.5zM247 616l160 -580q4 -13 -3 -24t-20 -15t-24 2.5 t-15 19.5q-13 49 -32 117h-194l-32 -117q-4 -13 -15.5 -19.5t-24.5 -2.5t-19.5 15t-2.5 24l160 580q7 24 31 24t31 -24zM137 200h158q-16 58 -45.5 166.5t-33.5 121.5q-4 -13 -33.5 -121.5t-45.5 -166.5z" />
<glyph unicode="&#xc5;" horiz-adv-x="432" d="M302 788q0 -35 -25 -60.5t-61 -25.5q-35 0 -60 25.5t-25 60.5t25 60t60 25q36 0 61 -25t25 -60zM182 788q0 -14 10 -24.5t24 -10.5t24.5 10.5t10.5 24.5t-10.5 24t-24.5 10t-24 -10t-10 -24zM247 616l160 -580q4 -13 -3 -24t-20 -15t-24 2.5t-15 19.5q-13 49 -32 117 h-194l-32 -117q-4 -13 -15.5 -19.5t-24.5 -2.5t-19.5 15t-2.5 24l160 580q7 24 31 24t31 -24zM137 200h158q-16 58 -45.5 166.5t-33.5 121.5q-4 -13 -33.5 -121.5t-45.5 -166.5z" />
<glyph unicode="&#xc6;" horiz-adv-x="617" d="M548 572h-168v-212h148q14 0 23 -9t9 -23t-9 -23t-23 -9h-148v-232h168q14 0 23 -9t9 -23t-9 -23t-23 -9h-200q-13 0 -22.5 9.5t-9.5 22.5v104h-184l-54 -121q-6 -12 -18.5 -16.5t-24.5 0.5t-16.5 17.5t0.5 24.5l258 576q8 19 30 19h241q14 0 23 -9t9 -23t-9 -23t-23 -9z M161 200h155v348q-12 -27 -37 -83t-61 -137.5t-57 -127.5z" />
<glyph unicode="&#xc7;" horiz-adv-x="394" d="M168 1q-50 14 -81 54.5t-31 92.5v340q0 52 31 92.5t81 54.5q49 13 97 -7t74 -64l10 -17q7 -12 3.5 -24.5t-15.5 -19.5q-11 -7 -23.5 -3.5t-19.5 15.5l-10 17q-15 26 -43 37t-56 4q-29 -7 -47 -31t-18 -54v-340q0 -30 18 -54t47 -31q28 -7 56 4t43 37l10 17 q7 12 19.5 15.5t23.5 -3.5q12 -7 15.5 -19.5t-3.5 -24.5l-10 -17q-34 -58 -99 -73v-34q0 -64 -57 -97q-11 -7 -23.5 -3.5t-19.5 14.5q-7 12 -3.5 24.5t15.5 19.5q24 15 24 42v34q-2 1 -4.5 1t-3.5 1z" />
<glyph unicode="&#xc8;" horiz-adv-x="368" d="M332 32q0 -13 -9.5 -22.5t-22.5 -9.5h-200q-14 0 -23 9t-9 23v572q0 14 9 23t23 9h200q13 0 22.5 -9.5t9.5 -22.5t-9.5 -22.5t-22.5 -9.5h-168v-212h148q13 0 22.5 -9.5t9.5 -22.5t-9.5 -22.5t-22.5 -9.5h-148v-232h168q13 0 22.5 -9.5t9.5 -22.5zM128 804 q-10 9 -10.5 22t8.5 23t22 11t23 -8l100 -90q10 -9 10.5 -22t-8.5 -23q-8 -10 -21.5 -11t-23.5 8z" />
<glyph unicode="&#xc9;" horiz-adv-x="368" d="M300 572h-168v-212h148q13 0 22.5 -9.5t9.5 -22.5t-9.5 -22.5t-22.5 -9.5h-148v-232h168q13 0 22.5 -9.5t9.5 -22.5t-9.5 -22.5t-22.5 -9.5h-200q-14 0 -23 9t-9 23v572q0 14 9 23t23 9h200q13 0 22.5 -9.5t9.5 -22.5t-9.5 -22.5t-22.5 -9.5zM128 762l100 90q10 9 23.5 8 t21.5 -11q9 -10 8.5 -23t-10.5 -22l-100 -90q-10 -9 -23 -8t-22 11t-8.5 23t10.5 22z" />
<glyph unicode="&#xca;" horiz-adv-x="368" d="M332 32q0 -13 -9.5 -22.5t-22.5 -9.5h-200q-14 0 -23 9t-9 23v572q0 14 9 23t23 9h200q13 0 22.5 -9.5t9.5 -22.5t-9.5 -22.5t-22.5 -9.5h-168v-212h148q13 0 22.5 -9.5t9.5 -22.5t-9.5 -22.5t-22.5 -9.5h-148v-232h168q13 0 22.5 -9.5t9.5 -22.5zM86 719q-8 11 -6.5 23 t11.5 20l90 70q19 15 37 0l90 -70q10 -7 12 -20t-6 -23t-20.5 -11.5t-22.5 6.5q-48 37 -71 55l-72 -55q-10 -8 -22.5 -6.5t-19.5 11.5z" />
<glyph unicode="&#xcb;" horiz-adv-x="368" d="M300 572h-168v-212h148q14 0 23 -9t9 -23t-9 -23t-23 -9h-148v-232h168q14 0 23 -9t9 -23t-9 -23t-23 -9h-200q-14 0 -23 9t-9 23v572q0 14 9 23t23 9h200q14 0 23 -9t9 -23t-9 -23t-23 -9zM238 778q0 17 12.5 29.5t29.5 12.5t29.5 -12.5t12.5 -29.5t-12.5 -29.5 t-29.5 -12.5t-29.5 12.5t-12.5 29.5zM78 778q0 17 12.5 29.5t29.5 12.5t29.5 -12.5t12.5 -29.5t-12.5 -29.5t-29.5 -12.5t-29.5 12.5t-12.5 29.5z" />
<glyph unicode="&#xcc;" horiz-adv-x="200" d="M171 762q10 -9 11 -22t-8 -23t-22 -11t-23 8l-100 90q-10 9 -11 22t8 23t22 11t23 -8zM132 28q0 -14 -9 -23t-23 -9t-23 9t-9 23v580q0 14 9 23t23 9t23 -9t9 -23v-580z" />
<glyph unicode="&#xcd;" horiz-adv-x="200" d="M68 608q0 14 9 23t23 9t23 -9t9 -23v-580q0 -14 -9 -23t-23 -9t-23 9t-9 23v580zM26 717q-9 10 -8 23t11 22l100 90q10 9 23 8t22 -11t8 -23t-11 -22l-100 -90q-10 -9 -23 -8t-22 11z" />
<glyph unicode="&#xce;" horiz-adv-x="200" d="M214 719q-7 -10 -20 -11.5t-23 6.5q-48 37 -71 55l-71 -55q-10 -8 -23 -6.5t-20 11.5q-8 10 -6.5 23t11.5 20l90 70q19 16 38 0l90 -70q10 -7 11.5 -20t-6.5 -23zM68 608q0 14 9 23t23 9t23 -9t9 -23v-580q0 -14 -9 -23t-23 -9t-23 9t-9 23v580z" />
<glyph unicode="&#xcf;" horiz-adv-x="200" d="M222 778q0 -17 -12.5 -29.5t-29.5 -12.5t-29.5 12.5t-12.5 29.5t12.5 29.5t29.5 12.5t29.5 -12.5t12.5 -29.5zM20 736q-17 0 -29.5 12.5t-12.5 29.5t12.5 29.5t29.5 12.5t29.5 -12.5t12.5 -29.5t-12.5 -29.5t-29.5 -12.5zM100 -4q-14 0 -23 9t-9 23v580q0 14 9 23t23 9 t23 -9t9 -23v-580q0 -14 -9 -23t-23 -9z" />
<glyph unicode="&#xd0;" horiz-adv-x="441" d="M81 604q0 13 9.5 22.5t22.5 9.5h120q63 0 107.5 -44.5t44.5 -107.5v-332q0 -63 -44.5 -107.5t-107.5 -44.5h-120q-13 0 -22.5 9.5t-9.5 22.5v265h-48q-12 0 -21 9t-9 22t9 21.5t21 8.5h48v246zM321 484q0 36 -25.5 62t-62.5 26h-88v-214h68q13 0 22 -8.5t9 -21.5t-9 -22 t-22 -9h-68v-233h88q37 0 62.5 25.5t25.5 62.5v332z" />
<glyph unicode="&#xd1;" horiz-adv-x="480" d="M93 639q26 5 36 -17q145 -300 219 -454v440q0 13 9.5 22.5t22.5 9.5q14 0 23 -9t9 -23v-580q0 -26 -25 -31q-23 -7 -36 17q-144 300 -219 454v-440q0 -14 -9 -23t-23 -9q-13 0 -22.5 9.5t-9.5 22.5v580q0 11 7 20t18 11zM133 741q-11 7 -13 19t5 23q20 33 60 39 q39 7 69 -17l8 -6q11 -8 23 -5q12 1 20 13q7 11 19 13t23 -5q10 -7 13 -19.5t-4 -22.5q-22 -33 -60 -39q-39 -6 -70 17l-8 6q-11 6 -23 5q-12 -2 -19 -13q-8 -11 -20 -13t-23 5z" />
<glyph unicode="&#xd2;" d="M360 488v-340q0 -63 -44.5 -107.5t-107.5 -44.5t-107.5 44.5t-44.5 107.5v340q0 63 44.5 107.5t107.5 44.5t107.5 -44.5t44.5 -107.5zM208 60q37 0 62.5 25.5t25.5 62.5v340q0 36 -25.5 62t-62.5 26q-36 0 -62 -26t-26 -62v-340q0 -37 26 -62.5t62 -25.5zM134 849 q9 10 22.5 11t23.5 -8l100 -90q10 -9 10.5 -22t-8.5 -23t-22 -11t-23 8l-100 90q-10 9 -10.5 22t7.5 23z" />
<glyph unicode="&#xd3;" d="M360 148q0 -63 -44.5 -107.5t-107.5 -44.5q-62 0 -107 44.5t-45 107.5v340q0 63 45 107.5t107 44.5q63 0 107.5 -44.5t44.5 -107.5v-340zM120 148q0 -37 26 -62.5t62 -25.5q37 0 62.5 25.5t25.5 62.5v340q0 36 -25.5 62t-62.5 26q-36 0 -62 -26t-26 -62v-340zM135 717 q-9 10 -8.5 23t10.5 22l100 90q10 9 23 8t22 -11t8.5 -23t-10.5 -22l-100 -90q-10 -9 -23.5 -8t-21.5 11z" />
<glyph unicode="&#xd4;" d="M360 148q0 -63 -44.5 -107.5t-107.5 -44.5q-62 0 -107 44.5t-45 107.5v340q0 63 45 107.5t107 44.5q63 0 107.5 -44.5t44.5 -107.5v-340zM120 148q0 -37 26 -62.5t62 -25.5q37 0 62.5 25.5t25.5 62.5v340q0 36 -25.5 62t-62.5 26q-36 0 -62 -26t-26 -62v-340zM137 714 q-10 -8 -22.5 -6.5t-20.5 11.5t-6 23t12 20l90 70q18 15 37 0l90 -70q10 -7 12 -20t-6 -23t-20.5 -11.5t-22.5 6.5q-48 37 -72 55z" />
<glyph unicode="&#xd5;" d="M360 148q0 -63 -45 -107.5t-107 -44.5q-63 0 -107.5 44.5t-44.5 107.5v340q0 63 44.5 107.5t107.5 44.5q62 0 107 -44.5t45 -107.5v-340zM208 60q36 0 62 25.5t26 62.5v340q0 36 -26 62t-62 26q-37 0 -62.5 -26t-25.5 -62v-340q0 -37 25.5 -62.5t62.5 -25.5zM92 783 q22 33 60 39q39 6 70 -17l8 -6q11 -8 23 -5q12 2 19 13q18 25 43 8q10 -7 12.5 -19.5t-4.5 -22.5q-22 -33 -60 -39q-39 -6 -70 17l-8 6q-10 7 -22 5q-12 -1 -20 -13q-7 -11 -19 -13t-23 5q-10 7 -13 19.5t4 22.5z" />
<glyph unicode="&#xd6;" d="M360 148q0 -63 -45 -107.5t-107 -44.5q-63 0 -107.5 44.5t-44.5 107.5v340q0 63 44.5 107.5t107.5 44.5q62 0 107 -44.5t45 -107.5v-340zM208 60q36 0 62 25.5t26 62.5v340q0 36 -26 62t-62 26q-37 0 -62.5 -26t-25.5 -62v-340q0 -37 25.5 -62.5t62.5 -25.5zM330 778 q0 -17 -12.5 -29.5t-29.5 -12.5q-18 0 -30 12.5t-12 29.5t12 29.5t30 12.5q17 0 29.5 -12.5t12.5 -29.5zM170 778q0 -17 -12.5 -29.5t-29.5 -12.5q-18 0 -30 12.5t-12 29.5t12 29.5t30 12.5q17 0 29.5 -12.5t12.5 -29.5z" />
<glyph unicode="&#xd7;" d="M331 411q9 -10 9 -23t-9 -23l-78 -77l78 -77q9 -10 9 -23t-9 -23q-10 -9 -23 -9t-23 9l-77 78l-77 -78q-10 -9 -23 -9t-23 9q-9 10 -9 23t9 23l78 77l-78 77q-9 10 -9 23t9 23q10 9 23 9t23 -9l77 -78l77 78q10 9 23 9t23 -9z" />
<glyph unicode="&#xd8;" horiz-adv-x="426" d="M407 675q11 -6 15 -18.5t-2 -23.5l-60 -108q5 -20 5 -37v-340q0 -63 -44.5 -107.5t-107.5 -44.5q-69 0 -113 51l-40 -74q-7 -11 -19 -14.5t-23 2.5t-14.5 18.5t2.5 23.5l59 108q-4 16 -4 37v340q0 63 44.5 107.5t107.5 44.5q67 0 113 -51l40 74q6 11 18 14.5t23 -2.5z M213 576q-37 0 -62.5 -26t-25.5 -62v-268l167 307q-25 49 -79 49zM213 60q36 0 62 25.5t26 62.5v268l-167 -307q24 -49 79 -49z" />
<glyph unicode="&#xd9;" horiz-adv-x="424" d="M212 -4q-63 0 -107.5 44.5t-44.5 107.5v460q0 14 9 23t23 9t23 -9t9 -23v-460q0 -37 25.5 -62.5t62.5 -25.5q36 0 62 25.5t26 62.5v460q0 14 9 23t23 9t23 -9t9 -23v-460q0 -63 -44.5 -107.5t-107.5 -44.5zM183 852l100 -90q10 -9 10.5 -22t-7.5 -23q-9 -10 -22.5 -11 t-23.5 8l-100 90q-10 9 -10.5 22t8.5 23t22 11t23 -8z" />
<glyph unicode="&#xda;" horiz-adv-x="424" d="M364 148q0 -63 -44.5 -107.5t-107.5 -44.5t-107.5 44.5t-44.5 107.5v460q0 14 9 23t23 9t23 -9t9 -23v-460q0 -37 25.5 -62.5t62.5 -25.5q36 0 62 25.5t26 62.5v460q0 14 9 23t23 9t23 -9t9 -23v-460zM183 714q-10 -9 -23 -8t-22 11t-8 23t11 22l100 90q10 9 23 8t22 -11 t8 -23t-11 -22z" />
<glyph unicode="&#xdb;" horiz-adv-x="424" d="M60 148v460q0 13 9.5 22.5t22.5 9.5q14 0 23 -9t9 -23v-460q0 -37 26 -62.5t62 -25.5q37 0 62.5 25.5t25.5 62.5v460q0 13 9.5 22.5t22.5 9.5q14 0 23 -9t9 -23v-460q0 -63 -44.5 -107.5t-107.5 -44.5q-62 0 -107 44.5t-45 107.5zM231 832l90 -70q10 -8 11.5 -20 t-6.5 -23q-7 -10 -19.5 -11.5t-22.5 6.5q-48 37 -72 55l-71 -55q-10 -8 -22.5 -6.5t-20.5 11.5t-6 23t12 20l90 70q19 15 37 0z" />
<glyph unicode="&#xdc;" horiz-adv-x="424" d="M212 -4q-62 0 -107 44.5t-45 107.5v460q0 13 9.5 22.5t22.5 9.5q14 0 23 -9t9 -23v-460q0 -37 26 -62.5t62 -25.5q37 0 62.5 25.5t25.5 62.5v460q0 13 9.5 22.5t22.5 9.5q14 0 23 -9t9 -23v-460q0 -63 -44.5 -107.5t-107.5 -44.5zM250 778q0 17 12.5 29.5t29.5 12.5 q18 0 30 -12.5t12 -29.5t-12 -29.5t-30 -12.5q-17 0 -29.5 12.5t-12.5 29.5zM132 736q-17 0 -29.5 12.5t-12.5 29.5t12.5 29.5t29.5 12.5q18 0 30 -12.5t12 -29.5t-12 -29.5t-30 -12.5z" />
<glyph unicode="&#xdd;" horiz-adv-x="402" d="M201 400l112 222q6 12 18.5 16t24.5 -1q11 -6 15.5 -19t-1.5 -24l-137 -274v-292q0 -14 -9.5 -23t-22.5 -9t-22.5 9.5t-9.5 22.5v292l-136 274q-6 11 -2 24t16 19q12 5 24.5 1t18.5 -16zM173 714q-10 -9 -23.5 -8t-22.5 11q-8 10 -7.5 23t10.5 22l100 90q10 9 23 8 t22 -11t8.5 -23t-10.5 -22z" />
<glyph unicode="&#xde;" horiz-adv-x="400" d="M220 510q62 0 107 -44.5t45 -107.5v-60q0 -63 -45 -107.5t-107 -44.5h-88v-118q0 -13 -9.5 -22.5t-22.5 -9.5q-14 0 -23 9t-9 23v576q0 14 9 23t23 9q13 0 22.5 -9.5t9.5 -22.5v-94h88zM220 210q36 0 62 25.5t26 62.5v60q0 36 -26 62t-62 26h-88v-236h88z" />
<glyph unicode="&#xdf;" horiz-adv-x="428" d="M370 148q0 -62 -44 -106t-106 -44q-13 0 -21.5 8.5t-8.5 21.5t8.5 21.5t21.5 8.5q38 0 64 26t26 64v160q0 38 -26 64t-64 26q-11 0 -19.5 7t-10.5 17q-3 24 18 34l19 7q38 16 43 58q3 42 -31 65q-35 24 -72 4q-37 -21 -37 -62v-500q0 -13 -9 -21.5t-21 -8.5 q-13 0 -21.5 8.5t-8.5 21.5v500q0 36 18.5 67t50.5 48q69 36 133 -7q58 -39 58 -108q0 -8 -1 -13q-5 -45 -35 -77q35 -20 55.5 -54.5t20.5 -75.5v-160z" />
<glyph unicode="&#xe0;" horiz-adv-x="352" d="M160 2q-54 0 -92 38t-38 92t38 92t92 38h70v68q0 45 -42 63q-44 17 -74 -15q-9 -9 -21.5 -9t-21.5 9t-9 21.5t9 20.5q28 28 66 35.5t74 -7.5t57.5 -47t21.5 -71v-298q0 -13 -9 -21.5t-21 -8.5h-100zM160 202q-29 0 -49.5 -20.5t-20.5 -49.5t20.5 -49.5t49.5 -20.5h70v140 h-70zM150 650l100 -90q9 -8 9.5 -20.5t-7.5 -21.5t-20.5 -9.5t-21.5 7.5l-100 90q-10 8 -10.5 20.5t7.5 21.5t20.5 9.5t22.5 -7.5z" />
<glyph unicode="&#xe1;" horiz-adv-x="352" d="M290 32q0 -13 -9 -21.5t-21 -8.5h-100q-54 0 -92 38t-38 92t38 92t92 38h70v68q0 45 -42 63q-44 17 -74 -15q-9 -9 -21.5 -9t-21.5 9q-8 9 -8 21.5t8 20.5q28 28 66 35.5t74 -7.5t57.5 -47t21.5 -71v-298zM90 132q0 -29 20.5 -49.5t49.5 -20.5h70v140h-70 q-29 0 -49.5 -20.5t-20.5 -49.5zM150 516q-22 -19 -43 2q-8 9 -7.5 21.5t10.5 20.5l100 90q9 8 21.5 7.5t20.5 -9.5t7.5 -21.5t-9.5 -20.5z" />
<glyph unicode="&#xe2;" horiz-adv-x="352" d="M160 262h70v68q0 45 -42 63q-44 17 -74 -15q-9 -9 -21.5 -9t-21.5 9q-8 9 -8 21.5t8 20.5q28 28 66 35.5t74 -7.5t57.5 -47t21.5 -71v-298q0 -13 -9 -21.5t-21 -8.5h-100q-54 0 -92 38t-38 92t38 92t92 38zM90 132q0 -29 20.5 -49.5t49.5 -20.5h70v140h-70 q-29 0 -49.5 -20.5t-20.5 -49.5zM162 630q18 13 35 0l90 -70q10 -7 11.5 -18.5t-6.5 -21.5q-7 -9 -18.5 -10.5t-21.5 5.5q-49 39 -72 57l-73 -57q-9 -7 -21 -5.5t-19 10.5q-7 10 -5.5 21.5t10.5 18.5z" />
<glyph unicode="&#xe3;" horiz-adv-x="352" d="M160 2q-54 0 -92 38t-38 92t38 92t92 38h70v68q0 45 -42 63q-44 17 -74 -15q-9 -9 -21.5 -9t-21.5 9q-8 9 -8 21.5t8 20.5q28 28 66 35.5t74 -7.5t57.5 -47t21.5 -71v-298q0 -13 -8.5 -21.5t-21.5 -8.5h-100zM160 202q-29 0 -49.5 -20.5t-20.5 -49.5t20.5 -49.5 t49.5 -20.5h70v140h-70zM286 614q10 -7 12 -18.5t-4 -21.5q-22 -32 -59 -38q-38 -6 -68 16l-8 6q-11 8 -24 6q-13 -1 -21 -14q-7 -10 -18.5 -12t-21.5 4q-10 7 -12 18.5t4 21.5q22 32 59 38q38 6 68 -16l8 -6q11 -9 24 -6q13 1 21 14q7 10 18.5 12t21.5 -4z" />
<glyph unicode="&#xe4;" horiz-adv-x="352" d="M160 262h70v68q0 45 -42 63q-44 17 -74 -15q-9 -9 -21.5 -9t-21.5 9q-8 9 -8 21.5t8 20.5q28 28 66 35.5t74 -7.5t57.5 -47t21.5 -71v-298q0 -13 -9 -21.5t-21 -8.5h-100q-54 0 -92 38t-38 92t38 92t92 38zM90 132q0 -29 20.5 -49.5t49.5 -20.5h70v140h-70 q-29 0 -49.5 -20.5t-20.5 -49.5zM220 578q0 16 12 28t28 12t28 -12t12 -28t-12 -28t-28 -12t-28 12t-12 28zM100 538q-16 0 -28 12t-12 28t12 28t28 12t28 -12t12 -28t-12 -28t-28 -12z" />
<glyph unicode="&#xe5;" horiz-adv-x="352" d="M264 588q0 -34 -25 -59t-59 -25t-59 25t-25 59t25 59t59 25t59 -25t25 -59zM144 588q0 -15 10.5 -25.5t25.5 -10.5t25.5 10.5t10.5 25.5t-10.5 25.5t-25.5 10.5t-25.5 -10.5t-10.5 -25.5zM160 262h70v68q0 45 -42 63q-43 17 -74 -15q-9 -9 -21.5 -9t-20.5 9q-9 9 -9 21.5 t9 20.5q27 28 65 35.5t74 -7.5t57.5 -47t21.5 -71v-298q0 -13 -8.5 -21.5t-21.5 -8.5h-100q-54 0 -92 38t-38 92t38 92t92 38zM90 132q0 -29 20.5 -49.5t49.5 -20.5h70v140h-70q-29 0 -49.5 -20.5t-20.5 -49.5z" />
<glyph unicode="&#xe6;" horiz-adv-x="541" d="M261 45q-20 -25 -51 -37q-36 -15 -74.5 -7.5t-66.5 35.5t-36 66.5t8 75.5q15 36 47.5 58t72.5 22h70v70q0 21 -12 39t-31 26q-46 17 -77 -16q-8 -8 -20.5 -8t-21.5 8q-9 9 -9 21.5t9 21.5q28 28 66.5 35.5t74.5 -7.5q31 -12 51 -37q39 47 100 47q53 0 91.5 -38t38.5 -92 v-100q0 -13 -9 -21.5t-21 -8.5h-170v-70q0 -21 12 -39t31 -26q43 -18 76 15q9 9 21.5 9t21.5 -9q8 -8 8 -20.5t-8 -21.5q-29 -28 -67 -35.5t-75 7.5q-30 12 -50 37zM291 328v-70h140v70q0 29 -20.5 49.5t-49.5 20.5t-49.5 -20.5t-20.5 -49.5zM111 78q33 -33 77 -15 q19 8 31 26t12 39v70h-70q-47 0 -65 -43q-17 -43 15 -77z" />
<glyph unicode="&#xe7;" horiz-adv-x="331" d="M138 448q37 15 75.5 7.5t66.5 -35.5q9 -9 9 -21.5t-9 -21.5q-9 -8 -21.5 -8t-20.5 8q-31 33 -77 16q-19 -8 -31 -26t-12 -39v-200q0 -21 12 -39t31 -26q15 -5 26 -5h1h1q27 0 49 20q8 9 20.5 9t21.5 -9q9 -8 9 -20.5t-9 -21.5q-25 -25 -62 -35v-34q0 -29 -15 -55t-40 -41 q-10 -6 -22.5 -2.5t-18.5 13.5q-6 11 -3 23t14 18q25 14 25 44v34q-11 3 -20 7q-36 15 -58 47.5t-22 72.5v200q0 40 22 72.5t58 47.5z" />
<glyph unicode="&#xe8;" horiz-adv-x="368" d="M280 36q-28 -28 -66.5 -35.5t-75.5 7.5q-36 15 -58 47.5t-22 72.5v200q0 54 38.5 92t91.5 38q54 0 92 -38t38 -92v-100q0 -13 -8.5 -21.5t-21.5 -8.5h-170v-70q0 -21 12 -39t31 -26q44 -18 77 15q8 9 20.5 9t21.5 -9q9 -8 9 -20.5t-9 -21.5zM188 398q-29 0 -49.5 -20.5 t-20.5 -49.5v-70h140v70q0 29 -20.5 49.5t-49.5 20.5zM158 650l100 -90q10 -8 10.5 -20.5t-8.5 -21.5q-8 -9 -20.5 -9.5t-21.5 7.5l-100 90q-9 8 -9.5 20.5t7.5 21.5t20.5 9.5t21.5 -7.5z" />
<glyph unicode="&#xe9;" horiz-adv-x="368" d="M139 8q-37 15 -59 47.5t-22 72.5v200q0 54 38.5 92t91.5 38q54 0 92 -38t38 -92v-100q0 -13 -8.5 -21.5t-21.5 -8.5h-170v-70q0 -21 12 -39t31 -26q44 -18 77 15q8 9 20.5 9t21.5 -9q9 -8 9 -20.5t-9 -21.5q-28 -28 -66.5 -35.5t-74.5 7.5zM188 398q-29 0 -49.5 -20.5 t-20.5 -49.5v-70h140v70q0 29 -20.5 49.5t-49.5 20.5zM218 650q22 19 43 -2q8 -9 7.5 -21.5t-10.5 -20.5l-100 -90q-9 -8 -21.5 -7.5t-20.5 9.5t-7.5 21.5t9.5 20.5z" />
<glyph unicode="&#xea;" horiz-adv-x="368" d="M139 8q-37 15 -59 47.5t-22 72.5v200q0 54 38.5 92t91.5 38q54 0 92 -38t38 -92v-100q0 -13 -8.5 -21.5t-21.5 -8.5h-170v-70q0 -47 44 -65q43 -18 76 15q9 9 21.5 9t20.5 -9q9 -8 9 -20.5t-9 -21.5q-28 -28 -66.5 -35.5t-74.5 7.5zM188 398q-29 0 -49.5 -20.5 t-20.5 -49.5v-70h140v70q0 29 -20.5 49.5t-49.5 20.5zM116 515q-10 -7 -21.5 -5.5t-18.5 10.5q-8 10 -6.5 21.5t11.5 18.5l90 70q17 14 35 0l90 -70q9 -7 10.5 -18.5t-5.5 -21.5q-7 -9 -19 -10.5t-21 5.5q-50 39 -73 57z" />
<glyph unicode="&#xeb;" horiz-adv-x="368" d="M58 328q0 54 38.5 92t91.5 38q54 0 92 -38t38 -92v-100q0 -13 -8.5 -21.5t-21.5 -8.5h-170v-70q0 -47 44 -65q43 -18 76 15q9 9 21.5 9t20.5 -9q9 -8 9 -20.5t-9 -21.5q-28 -28 -66.5 -35.5t-74.5 7.5q-37 15 -59 47.5t-22 72.5v200zM188 398q-29 0 -49.5 -20.5 t-20.5 -49.5v-70h140v70q0 29 -20.5 49.5t-49.5 20.5zM148 578q0 -16 -12 -28t-28 -12t-28 12t-12 28t12 28t28 12t28 -12t12 -28zM268 538q-16 0 -28 12t-12 28t12 28t28 12t28 -12t12 -28t-12 -28t-28 -12z" />
<glyph unicode="&#xec;" horiz-adv-x="200" d="M153 518q-8 -9 -20.5 -9.5t-22.5 7.5l-100 90q-9 8 -9.5 20.5t7.5 21.5t20.5 9.5t22.5 -7.5l100 -90q9 -8 9.5 -20.5t-7.5 -21.5zM70 428q0 13 9 21.5t21 8.5q13 0 21.5 -8.5t8.5 -21.5v-400q0 -13 -8.5 -21.5t-21.5 -8.5q-12 0 -21 8.5t-9 21.5v400z" />
<glyph unicode="&#xed;" horiz-adv-x="200" d="M70 428q0 13 8.5 21.5t21.5 8.5q12 0 21 -8.5t9 -21.5v-400q0 -13 -9 -21.5t-21 -8.5q-13 0 -21.5 8.5t-8.5 21.5v400zM192 648q8 -9 7.5 -21.5t-9.5 -20.5l-100 -90q-10 -8 -22.5 -7.5t-20.5 9.5t-7.5 21.5t10.5 20.5l100 90q9 8 21.5 7.5t20.5 -9.5z" />
<glyph unicode="&#xee;" horiz-adv-x="200" d="M-12 520q-7 10 -5.5 21.5t10.5 18.5l90 70q18 14 35 0l90 -70q10 -7 11.5 -18.5t-6.5 -21.5q-17 -21 -40 -5q-50 39 -72 57l-73 -57q-9 -7 -21 -5.5t-19 10.5zM131 428v-400q0 -13 -9 -21.5t-21 -8.5q-13 0 -21.5 8.5t-8.5 21.5v400q0 13 8.5 21.5t21.5 8.5q12 0 21 -8.5 t9 -21.5z" />
<glyph unicode="&#xef;" horiz-adv-x="200" d="M20 538q-16 0 -28 12t-12 28t12 28t28 12t28 -12t12 -28t-12 -28t-28 -12zM180 538q-16 0 -28 12t-12 28t12 28t28 12t28 -12t12 -28t-12 -28t-28 -12zM70 428q0 13 8.5 21.5t21.5 8.5q12 0 21 -8.5t9 -21.5v-400q0 -13 -9 -21.5t-21 -8.5q-13 0 -21.5 8.5t-8.5 21.5v400 z" />
<glyph unicode="&#xf0;" horiz-adv-x="376" d="M318 128q0 -54 -38 -92t-92 -38t-92 38t-38 92v200q0 54 38 92t92 38q26 0 47 -9q-18 45 -48 84l-43 -29q-10 -6 -21.5 -4t-18.5 12q-6 10 -4 21.5t12 18.5l35 23q-11 10 -37 28q-10 7 -12.5 19t4.5 23q7 10 19 12.5t23 -4.5q27 -18 54 -44l34 23q10 6 21.5 4t18.5 -12 t4.5 -21.5t-12.5 -18.5l-27 -18q21 -28 35 -54q46 -86 46 -184v-200zM188 58q29 0 49.5 20.5t20.5 49.5v200q0 29 -20.5 49.5t-49.5 20.5t-49.5 -20.5t-20.5 -49.5v-200q0 -29 20.5 -49.5t49.5 -20.5z" />
<glyph unicode="&#xf1;" horiz-adv-x="392" d="M266 606q15 22 40 8q10 -7 12 -18.5t-4 -21.5q-22 -32 -59 -38q-38 -6 -68 16l-8 6q-11 8 -25 6t-20 -14q-7 -10 -18.5 -12t-21.5 4q-10 7 -12.5 18.5t4.5 21.5q21 32 59 38q36 6 68 -16l8 -6q11 -9 24 -6q13 1 21 14zM300 -2q-13 0 -21.5 8.5t-8.5 21.5v296 q0 29 -20.5 49.5t-49.5 20.5h-70v-366q0 -13 -9 -21.5t-21 -8.5q-13 0 -21.5 8.5t-8.5 21.5v396q0 13 8.5 21.5t21.5 8.5h100q53 0 91.5 -38t38.5 -92v-296q0 -13 -9 -21.5t-21 -8.5z" />
<glyph unicode="&#xf2;" horiz-adv-x="376" d="M218 516l-100 90q-10 8 -10.5 20.5t8.5 21.5q8 9 20.5 9.5t21.5 -7.5l100 -90q9 -8 9.5 -20.5t-7.5 -21.5t-20.5 -9.5t-21.5 7.5zM318 328v-200q0 -54 -38 -92t-92 -38t-92 38t-38 92v200q0 54 38 92t92 38t92 -38t38 -92zM188 58q29 0 49.5 20.5t20.5 49.5v200 q0 29 -20.5 49.5t-49.5 20.5t-49.5 -20.5t-20.5 -49.5v-200q0 -29 20.5 -49.5t49.5 -20.5z" />
<glyph unicode="&#xf3;" horiz-adv-x="376" d="M116 518q-8 9 -7.5 21.5t9.5 20.5l100 90q9 8 21.5 7.5t20.5 -9.5t7.5 -21.5t-9.5 -20.5l-100 -90q-9 -8 -21.5 -7.5t-20.5 9.5zM188 -2q-54 0 -92 38t-38 92v200q0 54 38 92t92 38t92 -38t38 -92v-200q0 -54 -38 -92t-92 -38zM188 398q-29 0 -49.5 -20.5t-20.5 -49.5 v-200q0 -29 20.5 -49.5t49.5 -20.5t49.5 20.5t20.5 49.5v200q0 29 -20.5 49.5t-49.5 20.5z" />
<glyph unicode="&#xf4;" horiz-adv-x="376" d="M115 515q-9 -7 -21 -5.5t-19 10.5q-7 10 -5.5 21.5t10.5 18.5l90 70q18 13 35 0l90 -70q10 -7 11.5 -18.5t-6.5 -21.5q-7 -9 -18.5 -10.5t-21.5 5.5q-49 39 -72 57zM58 128v200q0 54 38 92t92 38t92 -38t38 -92v-200q0 -54 -38 -92t-92 -38t-92 38t-38 92zM188 398 q-29 0 -49.5 -20.5t-20.5 -49.5v-200q0 -29 20.5 -49.5t49.5 -20.5t49.5 20.5t20.5 49.5v200q0 29 -20.5 49.5t-49.5 20.5z" />
<glyph unicode="&#xf5;" horiz-adv-x="376" d="M122 550q-7 -10 -18.5 -12t-21.5 4q-10 7 -12 18.5t4 21.5q22 32 59 38q38 6 68 -16l8 -6q11 -9 24 -6q15 2 21 14q7 10 18.5 12t21.5 -4q10 -7 12.5 -18.5t-4.5 -21.5q-22 -32 -59 -38q-38 -6 -68 16l-8 6q-11 8 -24 6q-13 -1 -21 -14zM318 328v-200q0 -54 -38 -92 t-92 -38t-92 38t-38 92v200q0 54 38 92t92 38t92 -38t38 -92zM188 58q29 0 49.5 20.5t20.5 49.5v200q0 29 -20.5 49.5t-49.5 20.5t-49.5 -20.5t-20.5 -49.5v-200q0 -29 20.5 -49.5t49.5 -20.5z" />
<glyph unicode="&#xf6;" horiz-adv-x="376" d="M148 578q0 -16 -12 -28t-28 -12t-28 12t-12 28t12 28t28 12t28 -12t12 -28zM308 578q0 -16 -12 -28t-28 -12t-28 12t-12 28t12 28t28 12t28 -12t12 -28zM318 128q0 -54 -38 -92t-92 -38t-92 38t-38 92v200q0 54 38 92t92 38t92 -38t38 -92v-200zM188 58q29 0 49.5 20.5 t20.5 49.5v200q0 29 -20.5 49.5t-49.5 20.5t-49.5 -20.5t-20.5 -49.5v-200q0 -29 20.5 -49.5t49.5 -20.5z" />
<glyph unicode="&#xf7;" d="M166 158q0 17 12 29.5t30 12.5q17 0 29.5 -12.5t12.5 -29.5t-12.5 -29.5t-29.5 -12.5q-18 0 -30 12.5t-12 29.5zM208 376q-18 0 -30 12.5t-12 29.5t12 29.5t30 12.5q17 0 29.5 -12.5t12.5 -29.5t-12.5 -29.5t-29.5 -12.5zM360 288q0 -13 -9.5 -22.5t-22.5 -9.5h-240 q-14 0 -23 9t-9 23t9 23t23 9h240q13 0 22.5 -9.5t9.5 -22.5z" />
<glyph unicode="&#xf8;" horiz-adv-x="386" d="M63 328q0 54 38 92t92 38q48 0 83 -30l32 54q6 10 17.5 13t21.5 -2q10 -6 13 -17.5t-2 -21.5l-45 -77q10 -25 10 -49v-200q0 -54 -38 -92t-92 -38q-48 0 -83 30l-32 -54q-6 -10 -17.5 -13.5t-21.5 2.5t-13.5 17.5t2.5 21.5l45 76q-10 23 -10 50v200zM193 58 q29 0 49.5 20.5t20.5 49.5v163l-122 -209q19 -24 52 -24zM193 398q-29 0 -49.5 -20.5t-20.5 -49.5v-163l122 209q-21 24 -52 24z" />
<glyph unicode="&#xf9;" horiz-adv-x="392" d="M120 648q8 9 20.5 9.5t21.5 -7.5l100 -90q10 -8 10.5 -20.5t-7.5 -21.5q-21 -21 -43 -2l-100 90q-9 8 -9.5 20.5t7.5 21.5zM292 2h-100q-53 0 -91.5 38t-38.5 92v296q0 13 9 21.5t21 8.5q13 0 21.5 -8.5t8.5 -21.5v-296q0 -29 20.5 -49.5t49.5 -20.5h70v366q0 13 9 21.5 t21 8.5q13 0 21.5 -8.5t8.5 -21.5v-396q0 -13 -8.5 -21.5t-21.5 -8.5z" />
<glyph unicode="&#xfa;" horiz-adv-x="392" d="M162 516q-9 -8 -21.5 -7.5t-20.5 9.5t-7.5 21.5t9.5 20.5l100 90q10 8 22.5 7.5t20.5 -9.5t7.5 -21.5t-10.5 -20.5zM292 2h-100q-53 0 -91.5 38t-38.5 92v296q0 13 9 21.5t21 8.5q13 0 21.5 -8.5t8.5 -21.5v-296q0 -29 20.5 -49.5t49.5 -20.5h70v366q0 13 9 21.5t21 8.5 q13 0 21.5 -8.5t8.5 -21.5v-396q0 -13 -8.5 -21.5t-21.5 -8.5z" />
<glyph unicode="&#xfb;" horiz-adv-x="392" d="M120 515q-23 -16 -40 5q-7 10 -5.5 21.5t10.5 18.5l90 70q17 14 35 0l90 -70q9 -7 10.5 -18.5t-5.5 -21.5q-7 -9 -19 -10.5t-21 5.5q-50 39 -73 57zM62 428q0 13 9 21.5t21 8.5q13 0 21.5 -8.5t8.5 -21.5v-296q0 -29 20.5 -49.5t49.5 -20.5h70v366q0 13 9 21.5t21 8.5 q13 0 21.5 -8.5t8.5 -21.5v-396q0 -13 -8.5 -21.5t-21.5 -8.5h-100q-53 0 -91.5 38t-38.5 92v296z" />
<glyph unicode="&#xfc;" horiz-adv-x="392" d="M72 578q0 16 12 28t28 12q17 0 28.5 -11.5t11.5 -28.5t-11.5 -28.5t-28.5 -11.5q-16 0 -28 12t-12 28zM232 578q0 16 12 28t28 12q17 0 28.5 -11.5t11.5 -28.5t-11.5 -28.5t-28.5 -11.5q-16 0 -28 12t-12 28zM192 2q-53 0 -91.5 38t-38.5 92v296q0 13 9 21.5t21 8.5 q13 0 21.5 -8.5t8.5 -21.5v-296q0 -29 20.5 -49.5t49.5 -20.5h70v366q0 13 9 21.5t21 8.5q13 0 21.5 -8.5t8.5 -21.5v-396q0 -13 -8.5 -21.5t-21.5 -8.5h-100z" />
<glyph unicode="&#xfd;" horiz-adv-x="369" d="M112 518q-8 9 -7.5 21.5t9.5 20.5l100 90q10 8 22.5 7.5t20.5 -9.5t7.5 -21.5t-9.5 -20.5l-100 -90q-10 -8 -22.5 -7.5t-20.5 9.5zM93 437l92 -305l91 305q4 11 14.5 17t22.5 3q12 -4 18 -15t2 -23l-120 -400l-38 -128q-12 -42 -47 -67q-35 -26 -78 -26q-12 0 -21 8.5 t-9 21.5t9 21.5t21 8.5q23 0 41.5 14t25.5 36l36 120l-117 391q-4 12 2 23t18 15q12 3 23 -3t14 -17z" />
<glyph unicode="&#xfe;" horiz-adv-x="388" d="M130 -172q0 -13 -8.5 -21.5t-21.5 -8.5t-21.5 8.5t-8.5 21.5v800q0 13 8.5 21.5t21.5 8.5t21.5 -8.5t8.5 -21.5v-170h70q54 0 92 -38t38 -92v-200q0 -54 -38 -92t-92 -38h-70v-170zM200 398h-70v-340h70q29 0 49.5 20.5t20.5 49.5v200q0 29 -20.5 49.5t-49.5 20.5z" />
<glyph unicode="&#xff;" horiz-adv-x="369" d="M305 578q0 -16 -11.5 -28t-28.5 -12t-28.5 12t-11.5 28t11.5 28t28.5 12t28.5 -12t11.5 -28zM105 538q-17 0 -28.5 12t-11.5 28t11.5 28t28.5 12t28.5 -12t11.5 -28t-11.5 -28t-28.5 -12zM175 -109q-12 -42 -47 -67q-35 -26 -78 -26q-12 0 -21 8.5t-9 21.5t9 21.5t21 8.5 q23 0 41.5 14t25.5 36l36 120l-117 391q-4 12 2 23t18 15q12 3 23 -3t14 -17l92 -305l91 305q4 11 14.5 17t22.5 3q12 -4 18 -15t2 -23l-120 -400z" />
<glyph unicode="&#x152;" horiz-adv-x="596" d="M208 -4q-63 0 -107.5 44.5t-44.5 107.5v340q0 63 44.5 107.5t107.5 44.5q49 0 89 -29q2 11 11 18t20 7h200q13 0 22.5 -9.5t9.5 -22.5t-9.5 -22.5t-22.5 -9.5h-168v-104v-108h148q13 0 22.5 -9.5t9.5 -22.5t-9.5 -22.5t-22.5 -9.5h-148v-128v-104h168q13 0 22.5 -9.5 t9.5 -22.5t-9.5 -22.5t-22.5 -9.5h-200q-11 0 -20 7t-11 18q-40 -29 -89 -29zM208 576q-37 0 -62.5 -26t-25.5 -62v-340q0 -37 25.5 -62.5t62.5 -25.5q36 0 62 25.5t26 62.5v20v300v20q0 36 -26 62t-62 26z" />
<glyph unicode="&#x153;" horiz-adv-x="568" d="M288 45q-39 -47 -100 -47q-54 0 -92 38t-38 92v200q0 54 38 92t92 38q61 0 100 -47q39 47 100 47q53 0 91.5 -38t38.5 -92v-100q0 -13 -9 -21.5t-21 -8.5h-170v-70q0 -21 12 -39t31 -26q43 -18 76 15q9 9 21.5 9t21.5 -9q8 -8 8 -20.5t-8 -21.5q-29 -28 -67 -35.5 t-75 7.5q-30 12 -50 37zM388 398q-29 0 -49.5 -20.5t-20.5 -49.5v-70h140v70q0 29 -20.5 49.5t-49.5 20.5zM188 58q29 0 49.5 20.5t20.5 49.5v200q0 29 -20.5 49.5t-49.5 20.5t-49.5 -20.5t-20.5 -49.5v-200q0 -29 20.5 -49.5t49.5 -20.5z" />
<glyph unicode="&#x178;" horiz-adv-x="402" d="M312 622q6 12 18.5 16t24.5 -1q11 -6 15.5 -19t-1.5 -24l-137 -274v-292q0 -14 -9 -23t-23 -9q-13 0 -22.5 9.5t-9.5 22.5v292l-136 274q-6 11 -2 24t16 19q12 5 24.5 1t18.5 -16l111 -222zM238 778q0 17 12.5 29.5t29.5 12.5q18 0 30 -12.5t12 -29.5t-12 -29.5 t-30 -12.5q-17 0 -29.5 12.5t-12.5 29.5zM120 736q-17 0 -29.5 12.5t-12.5 29.5t12.5 29.5t29.5 12.5q18 0 30 -12.5t12 -29.5t-12 -29.5t-30 -12.5z" />
<glyph unicode="&#x2c6;" horiz-adv-x="500" d="M180 513q-10 -8 -23.5 -6.5t-21.5 11.5q-8 11 -6.5 24t12.5 21l90 70q19 15 39 0l90 -70q10 -8 12 -21.5t-6 -23.5t-21.5 -11.5t-23.5 6.5q-47 36 -71 54z" />
<glyph unicode="&#x2dc;" horiz-adv-x="500" d="M194 624q40 6 71 -17l8 -6q10 -7 22 -6q12 3 18 12q7 11 20.5 14t24.5 -5q11 -7 14 -20t-5 -24q-21 -32 -61 -40q-40 -6 -71 17l-8 6q-9 8 -22 6q-13 -4 -18 -13q-7 -10 -20.5 -13t-24.5 4q-10 7 -13 20.5t4 24.5q21 32 61 40z" />
<glyph unicode="&#x2000;" horiz-adv-x="436" />
<glyph unicode="&#x2001;" horiz-adv-x="873" />
<glyph unicode="&#x2002;" horiz-adv-x="436" />
<glyph unicode="&#x2003;" horiz-adv-x="873" />
<glyph unicode="&#x2004;" horiz-adv-x="291" />
<glyph unicode="&#x2005;" horiz-adv-x="218" />
<glyph unicode="&#x2006;" horiz-adv-x="145" />
<glyph unicode="&#x2007;" horiz-adv-x="145" />
<glyph unicode="&#x2008;" horiz-adv-x="109" />
<glyph unicode="&#x2009;" horiz-adv-x="174" />
<glyph unicode="&#x200a;" horiz-adv-x="48" />
<glyph unicode="&#x2010;" d="M360 288q0 -13 -9.5 -22.5t-22.5 -9.5h-240q-14 0 -23 9t-9 23t9 23t23 9h240q13 0 22.5 -9.5t9.5 -22.5z" />
<glyph unicode="&#x2011;" d="M360 288q0 -13 -9.5 -22.5t-22.5 -9.5h-240q-14 0 -23 9t-9 23t9 23t23 9h240q13 0 22.5 -9.5t9.5 -22.5z" />
<glyph unicode="&#x2012;" d="M360 288q0 -13 -9.5 -22.5t-22.5 -9.5h-240q-14 0 -23 9t-9 23t9 23t23 9h240q13 0 22.5 -9.5t9.5 -22.5z" />
<glyph unicode="&#x2013;" horiz-adv-x="500" d="M500 320q14 0 23 -9t9 -23t-9 -23t-23 -9h-500q-13 0 -22.5 9.5t-9.5 22.5t9.5 22.5t22.5 9.5h500z" />
<glyph unicode="&#x2014;" horiz-adv-x="1000" d="M0 256q-13 0 -22.5 9.5t-9.5 22.5t9.5 22.5t22.5 9.5h1000q14 0 23 -9t9 -23t-9 -23t-23 -9h-1000z" />
<glyph unicode="&#x2018;" horiz-adv-x="192" d="M123 580q-13 -6 -13 -20v-18h2q12 0 21 -8.5t9 -21.5t-9 -22t-21 -9h-32q-13 0 -22 9t-9 22v48q0 25 14 45.5t37 30.5q11 5 23 0t17 -16q5 -12 0 -24t-17 -16z" />
<glyph unicode="&#x2019;" horiz-adv-x="192" d="M68 536q13 5 13 20v17h-1q-13 0 -22 9t-9 22t9 21.5t22 8.5h32q12 0 21 -8.5t9 -21.5v-48q0 -25 -14 -45.5t-37 -30.5q-11 -5 -23 0t-17 16q-5 12 0 24t17 16z" />
<glyph unicode="&#x201a;" horiz-adv-x="191" d="M112 78q12 0 21 -8.5t9 -21.5v-48q0 -25 -14 -45.5t-37 -30.5q-11 -5 -23 0t-17 16q-5 12 0 24t17 16q13 5 13 20v17h-1q-13 0 -22 9t-9 22t9 21.5t22 8.5h32z" />
<glyph unicode="&#x201c;" horiz-adv-x="371" d="M303 580q-13 -6 -13 -20v-18h1q13 0 22 -8.5t9 -21.5t-9 -22t-22 -9h-32q-13 0 -21.5 9t-8.5 22v48q0 25 13.5 45.5t36.5 30.5q12 5 23.5 0t16.5 -16q5 -12 0 -23.5t-16 -16.5zM123 580q-13 -6 -13 -20v-18h1q13 0 22 -8.5t9 -21.5t-9 -22t-22 -9h-32q-13 0 -21.5 9 t-8.5 22v48q0 25 13.5 45.5t36.5 30.5q12 5 23.5 0t16.5 -16q5 -12 0 -23.5t-16 -16.5z" />
<glyph unicode="&#x201d;" horiz-adv-x="372" d="M68 536q14 5 14 20v17h-2q-13 0 -21.5 9t-8.5 22t8.5 21.5t21.5 8.5h32q13 0 22 -8.5t9 -21.5v-48q0 -25 -14 -45.5t-37 -30.5q-12 -5 -23.5 0t-16.5 16q-5 12 0 23.5t16 16.5zM230 604q0 13 8.5 21.5t21.5 8.5h32q13 0 22 -8.5t9 -21.5v-48q0 -25 -14 -45.5t-37 -30.5 q-12 -5 -23.5 0t-16.5 16q-5 12 0 23.5t16 16.5q14 5 14 20v17h-2q-13 0 -21.5 9t-8.5 22z" />
<glyph unicode="&#x201e;" horiz-adv-x="372" d="M92 -76q-12 -5 -23.5 0t-16.5 16q-5 12 0 23.5t16 16.5q13 5 13 20v17h-1q-13 0 -22 9t-9 22t9 21.5t22 8.5h32q13 0 21.5 -8.5t8.5 -21.5v-48q0 -25 -13.5 -45.5t-36.5 -30.5zM248 -20q13 5 13 20v17h-1q-13 0 -22 9t-9 22t9 21.5t22 8.5h32q13 0 21.5 -8.5t8.5 -21.5 v-48q0 -25 -13.5 -45.5t-36.5 -30.5q-12 -5 -23.5 0t-16.5 16q-5 12 0 23.5t16 16.5z" />
<glyph unicode="&#x2022;" horiz-adv-x="256" d="M128 381q41 0 70 -29t29 -70t-29 -70t-70 -29t-69.5 29t-28.5 70t29 70t69 29zM128 241q17 0 29.5 12t12.5 29t-12.5 29t-29.5 12t-29 -12t-12 -29t12 -29t29 -12z" />
<glyph unicode="&#x2026;" horiz-adv-x="576" d="M88 80q18 0 30 -12.5t12 -29.5t-12 -29.5t-30 -12.5q-17 0 -29.5 12.5t-12.5 29.5t12.5 29.5t29.5 12.5zM330 38q0 -17 -12 -29.5t-30 -12.5q-17 0 -29.5 12.5t-12.5 29.5t12.5 29.5t29.5 12.5q18 0 30 -12.5t12 -29.5zM446 38q0 17 12.5 29.5t29.5 12.5q18 0 30 -12.5 t12 -29.5t-12 -29.5t-30 -12.5q-17 0 -29.5 12.5t-12.5 29.5z" />
<glyph unicode="&#x202f;" horiz-adv-x="174" />
<glyph unicode="&#x2039;" horiz-adv-x="239" d="M176 408q0 -10 -4 -15q-42 -78 -55 -101l59 -109q4 -7 4 -15q0 -18 -16 -28q-12 -7 -24.5 -3t-19.5 16l-68 123q-8 16 0 31l64 116q7 12 19.5 16t24.5 -3q16 -10 16 -28z" />
<glyph unicode="&#x203a;" horiz-adv-x="239" d="M187 307q9 -15 0 -31l-68 -123q-6 -12 -19 -16t-24 3q-17 9 -17 28q0 5 4 15q47 85 60 109l-56 101q-4 8 -4 15q0 19 17 28q11 7 24 3t19 -16z" />
<glyph unicode="&#x205f;" horiz-adv-x="218" />
<glyph unicode="&#x20ac;" d="M227 573q-29 -7 -47 -31t-18 -54v-58h128q13 0 22.5 -9.5t9.5 -22.5t-9.5 -22.5t-22.5 -9.5h-128v-96h88q13 0 22.5 -9.5t9.5 -22.5t-9.5 -22.5t-22.5 -9.5h-88v-58q0 -30 18 -54t47 -31q28 -7 56 4t43 37l10 17q7 12 19.5 15.5t24.5 -3.5q11 -7 14.5 -19.5t-3.5 -24.5 l-10 -17q-25 -45 -73 -65t-98 -6t-81 54.5t-31 92.5v58h-48q-14 0 -23 9t-9 23t9 23t23 9h48v96h-48q-14 0 -23 9t-9 23t9 23t23 9h48v58q0 52 31 92.5t81 54.5q50 13 97.5 -7t73.5 -64l10 -17q7 -12 3.5 -24.5t-14.5 -19.5q-12 -7 -24.5 -3.5t-19.5 15.5l-10 17 q-15 26 -43 37t-56 4z" />
<glyph unicode="&#x2122;" horiz-adv-x="670" d="M402 626q47 -66 75 -106l75 106q14 17 35 11q21 -7 21 -29v-300q0 -13 -9 -22t-22 -9t-21.5 9t-8.5 22v205l-45 -63q-10 -13 -25 -13t-25 13q-22 32 -44 63v-205q0 -13 -9 -22t-22 -9t-21.5 9t-8.5 22v300q0 23 21 29q20 6 34 -11zM157 277q-13 0 -21.5 9t-8.5 22v265 h-70q-13 0 -21.5 9t-8.5 22t8.5 21.5t21.5 8.5h200q13 0 22 -8.5t9 -21.5t-9 -22t-22 -9h-69v-265q0 -13 -9 -22t-22 -9z" />
<glyph unicode="&#x25fc;" horiz-adv-x="460" d="M0 460h460v-460h-460v460z" />
</font>
</defs>
</svg>
