<svg width="24" height="25" viewBox="0 0 24 25" xmlns="http://www.w3.org/2000/svg"><title>logo_white</title><g fill="#FFF" fill-rule="evenodd"><path d="M4.814 5.266C1.87 6.023.015 8.443.015 12.148c0 5.479 3.617 12.05 7.637 12.05.509 0 1.027-.142 1.65-.401.183-.077.37-.16.598-.268.801-.377 1.009-.465 1-.465-.03 0-.068-.017.928.461.91.438 1.613.666 2.39.673 4.06 0 7.703-6.56 7.703-12.05h-2.103c0 4.509-3.05 10.003-5.568 10.003-.393-.004-.843-.15-1.492-.462-.02-.01-.652-.322-.826-.401-.396-.178-.695-.272-1.032-.272-.33 0-.633.09-1.038.263-.128.054-.263.115-.44.199l-.437.207c-.202.095-.36.167-.51.229-.383.16-.664.237-.823.237-2.504 0-5.534-5.505-5.534-10.003 0-2.788 1.225-4.386 3.233-4.902 1.748-.45 3.851.051 4.863 1.064l.754.755.753-.755c1.206-1.206 3.83-1.636 5.663-.78l.91-1.845c-2.317-1.083-5.37-.762-7.327.577-1.631-1.112-4.05-1.537-6.153-.996z" fill-rule="nonzero"/><path fill-rule="nonzero" d="M7.711 11.15l-1.514 1.42 4.725 4.779L23.945 6.512l-1.366-1.557-11.517 9.584z"/><path d="M10.856.925c.353.79-.16 3.446-.16 3.446S8.285 2.98 7.931 2.189c-.354-.79 0-1.707.803-2.054.803-.348 1.767 0 2.12.79"/></g></svg>